<svg width="40" height="40" viewBox="0 0 40 40" fill="none" xmlns="http://www.w3.org/2000/svg">
<path opacity="0.3" fill-rule="evenodd" clip-rule="evenodd" d="M5.07812 22.829L8.25521 23.8376C10.5199 16.7038 14.3719 13.3333 20 13.3333C19.0795 13.3333 18.3333 12.5871 18.3333 11.6667C18.3333 10.7462 19.0795 10 20 10C20.9205 10 21.6667 10.7462 21.6667 11.6667C21.6667 12.5867 20.9213 13.3325 20.0015 13.3333C25.6288 13.3339 29.4803 16.7044 31.7448 23.8376L34.9219 22.829C32.2483 14.4073 27.2114 10 20 10C12.7886 10 7.75168 14.4073 5.07812 22.829Z" fill="#01B075"/>
<path fill-rule="evenodd" clip-rule="evenodd" d="M20 16.6666C22.177 16.6666 24.0291 15.2753 24.7155 13.3333H30.4459C31.0223 14.3296 32.0995 15 33.3333 15C35.1743 15 36.6667 13.5076 36.6667 11.6666C36.6667 9.82568 35.1743 8.33329 33.3333 8.33329C32.0995 8.33329 31.0223 9.00362 30.4459 9.99996H24.7155C24.0291 8.05797 22.177 6.66663 20 6.66663C17.823 6.66663 15.9709 8.05797 15.2845 9.99996H9.55406C8.97771 9.00362 7.90047 8.33329 6.66667 8.33329C4.82572 8.33329 3.33333 9.82568 3.33333 11.6666C3.33333 13.5076 4.82572 15 6.66667 15C7.90047 15 8.97771 14.3296 9.55406 13.3333H15.2845C15.9709 15.2753 17.823 16.6666 20 16.6666ZM21.6667 11.6666C21.6667 12.5871 20.9205 13.3333 20 13.3333C19.0795 13.3333 18.3333 12.5871 18.3333 11.6666C18.3333 10.7462 19.0795 9.99996 20 9.99996C20.9205 9.99996 21.6667 10.7462 21.6667 11.6666ZM6.66667 31.6666C9.42809 31.6666 11.6667 29.4281 11.6667 26.6666C11.6667 23.9052 9.42809 21.6666 6.66667 21.6666C3.90524 21.6666 1.66667 23.9052 1.66667 26.6666C1.66667 29.4281 3.90524 31.6666 6.66667 31.6666ZM8.33333 26.6666C8.33333 27.5871 7.58714 28.3333 6.66667 28.3333C5.74619 28.3333 5 27.5871 5 26.6666C5 25.7461 5.74619 25 6.66667 25C7.58714 25 8.33333 25.7461 8.33333 26.6666ZM33.3333 31.6666C36.0948 31.6666 38.3333 29.4281 38.3333 26.6666C38.3333 23.9052 36.0948 21.6666 33.3333 21.6666C30.5719 21.6666 28.3333 23.9052 28.3333 26.6666C28.3333 29.4281 30.5719 31.6666 33.3333 31.6666ZM35 26.6666C35 27.5871 34.2538 28.3333 33.3333 28.3333C32.4129 28.3333 31.6667 27.5871 31.6667 26.6666C31.6667 25.7461 32.4129 25 33.3333 25C34.2538 25 35 25.7461 35 26.6666Z" fill="#01B075"/>
</svg>
