<svg width="13" height="14" viewBox="0 0 13 14" fill="none" xmlns="http://www.w3.org/2000/svg">
<path d="M7.34801 3.66658H8.01468C8.19142 3.66681 8.36085 3.73712 8.48583 3.8621C8.6108 3.98707 8.68111 4.15651 8.68134 4.33325V4.99992C8.68134 5.17673 8.75158 5.3463 8.8766 5.47132C9.00163 5.59635 9.1712 5.66658 9.34801 5.66658C9.52482 5.66658 9.69439 5.59635 9.81941 5.47132C9.94444 5.3463 10.0147 5.17673 10.0147 4.99992V4.33325C10.0141 3.80299 9.8032 3.29462 9.42825 2.91968C9.0533 2.54473 8.54493 2.33383 8.01468 2.33325H7.34801C7.1712 2.33325 7.00163 2.40349 6.8766 2.52851C6.75158 2.65354 6.68134 2.82311 6.68134 2.99992C6.68134 3.17673 6.75158 3.3463 6.8766 3.47132C7.00163 3.59635 7.1712 3.66658 7.34801 3.66658ZM4.68134 9.66658H4.01468C3.83793 9.66635 3.6685 9.59604 3.54352 9.47107C3.41855 9.34609 3.34824 9.17666 3.34801 8.99992V8.33325C3.34801 8.15644 3.27777 7.98687 3.15275 7.86185C3.02772 7.73682 2.85815 7.66658 2.68134 7.66658C2.50453 7.66658 2.33496 7.73682 2.20994 7.86185C2.08491 7.98687 2.01467 8.15644 2.01467 8.33325V8.99992C2.01525 9.53017 2.22615 10.0385 2.6011 10.4135C2.97605 10.7884 3.48442 10.9993 4.01468 10.9999H4.68134C4.85815 10.9999 5.02772 10.9297 5.15275 10.8047C5.27777 10.6796 5.34801 10.5101 5.34801 10.3333C5.34801 10.1564 5.27777 9.98687 5.15275 9.86185C5.02772 9.73682 4.85815 9.66658 4.68134 9.66658ZM12.0147 8.99992C12.1915 8.99992 12.3611 8.92968 12.4861 8.80465C12.6111 8.67963 12.6813 8.51006 12.6813 8.33325C12.6813 8.15644 12.6111 7.98687 12.4861 7.86185C12.3611 7.73682 12.1915 7.66658 12.0147 7.66658H10.0147V7.33325C10.0147 7.15644 9.94444 6.98687 9.81941 6.86185C9.69439 6.73682 9.52482 6.66658 9.34801 6.66658C9.1712 6.66658 9.00163 6.73682 8.8766 6.86185C8.75158 6.98687 8.68134 7.15644 8.68134 7.33325V7.66658H6.68134C6.50453 7.66658 6.33496 7.73682 6.20994 7.86185C6.08491 7.98687 6.01468 8.15644 6.01468 8.33325C6.01468 8.51006 6.08491 8.67963 6.20994 8.80465C6.33496 8.92968 6.50453 8.99992 6.68134 8.99992H10.1375C9.9867 9.61262 9.7083 10.1866 9.3205 10.6844C9.16182 10.4787 9.02147 10.2594 8.90107 10.0292C8.86114 9.95133 8.80627 9.88207 8.73957 9.82539C8.67288 9.76871 8.59568 9.72573 8.51237 9.69888C8.42906 9.67204 8.34129 9.66187 8.25405 9.66895C8.16681 9.67603 8.08183 9.70023 8.00394 9.74015C7.92605 9.78008 7.85679 9.83496 7.80011 9.90165C7.74343 9.96834 7.70045 10.0455 7.6736 10.1289C7.6194 10.2971 7.63424 10.48 7.71488 10.6373C7.89442 10.9843 8.10864 11.3122 8.35427 11.6159C7.87059 11.9671 7.32058 12.2164 6.73764 12.3486C6.5652 12.3866 6.4149 12.4915 6.31971 12.6402C6.22452 12.789 6.19222 12.9694 6.22989 13.1419C6.26757 13.3144 6.37214 13.4649 6.52067 13.5604C6.6692 13.6559 6.84955 13.6886 7.02214 13.6513C7.8586 13.4663 8.64323 13.097 9.31881 12.5702C10.0001 13.0973 10.7899 13.4664 11.6312 13.651C11.7167 13.6698 11.8051 13.6717 11.8913 13.6564C11.9775 13.6411 12.0598 13.6089 12.1336 13.5618C12.2074 13.5147 12.2712 13.4535 12.3213 13.3817C12.3714 13.3099 12.4069 13.229 12.4258 13.1435C12.4446 13.058 12.4465 12.9696 12.4312 12.8834C12.4159 12.7972 12.3837 12.7149 12.3366 12.6411C12.2895 12.5673 12.2283 12.5035 12.1565 12.4534C12.0847 12.4033 12.0038 12.3678 11.9183 12.3489C11.3315 12.2184 10.7769 11.9713 10.2876 11.6222C10.904 10.8634 11.3195 9.96156 11.4958 8.99992H12.0147ZM4.03451 6.49504C4.07786 6.66611 4.18726 6.81302 4.33874 6.90357C4.49022 6.99412 4.67142 7.02092 4.84262 6.97809C5.01382 6.93527 5.16107 6.82632 5.25208 6.67511C5.34309 6.52391 5.37044 6.3428 5.32814 6.17146L4.15658 1.48494C4.07429 1.15597 3.88441 0.863943 3.61711 0.655269C3.34981 0.446596 3.02043 0.333252 2.68132 0.333252C2.34221 0.333252 2.01284 0.446596 1.74554 0.655269C1.47823 0.863943 1.28835 1.15597 1.20606 1.48494L0.0345148 6.17146C-0.00778671 6.3428 0.0195646 6.52391 0.110574 6.67511C0.201583 6.82632 0.348826 6.93527 0.52003 6.97809C0.691234 7.02092 0.872433 6.99412 1.02391 6.90357C1.17539 6.81302 1.28479 6.66611 1.32813 6.49504L1.70187 4.99992H3.66077L4.03451 6.49504ZM2.03521 3.66658L2.49968 1.80851C2.51363 1.77162 2.53849 1.73986 2.57093 1.71744C2.60338 1.69502 2.64188 1.68302 2.68132 1.68302C2.72076 1.68302 2.75926 1.69502 2.79171 1.71744C2.82416 1.73986 2.84901 1.77162 2.86296 1.80851L3.32744 3.66658H2.03521Z" fill="#1D2B4B"/>
</svg>
