<svg width="13" height="14" viewBox="0 0 13 14" fill="none" xmlns="http://www.w3.org/2000/svg">
<path d="M7.34807 3.66658H8.01474C8.19148 3.66681 8.36091 3.73712 8.48589 3.8621C8.61086 3.98707 8.68117 4.15651 8.6814 4.33325V4.99992C8.6814 5.17673 8.75164 5.3463 8.87667 5.47132C9.00169 5.59635 9.17126 5.66658 9.34807 5.66658C9.52488 5.66658 9.69445 5.59635 9.81947 5.47132C9.9445 5.3463 10.0147 5.17673 10.0147 4.99992V4.33325C10.0142 3.80299 9.80326 3.29462 9.42831 2.91968C9.05336 2.54473 8.54499 2.33383 8.01474 2.33325H7.34807C7.17126 2.33325 7.00169 2.40349 6.87666 2.52851C6.75164 2.65354 6.6814 2.82311 6.6814 2.99992C6.6814 3.17673 6.75164 3.3463 6.87666 3.47132C7.00169 3.59635 7.17126 3.66658 7.34807 3.66658ZM4.6814 9.66658H4.01474C3.838 9.66635 3.66856 9.59604 3.54358 9.47107C3.41861 9.34609 3.3483 9.17666 3.34807 8.99992V8.33325C3.34807 8.15644 3.27783 7.98687 3.15281 7.86185C3.02778 7.73682 2.85821 7.66658 2.6814 7.66658C2.50459 7.66658 2.33502 7.73682 2.21 7.86185C2.08497 7.98687 2.01474 8.15644 2.01474 8.33325V8.99992C2.01531 9.53017 2.22621 10.0385 2.60116 10.4135C2.97611 10.7884 3.48448 10.9993 4.01474 10.9999H4.6814C4.85821 10.9999 5.02778 10.9297 5.15281 10.8047C5.27783 10.6796 5.34807 10.5101 5.34807 10.3333C5.34807 10.1564 5.27783 9.98687 5.15281 9.86185C5.02778 9.73682 4.85821 9.66658 4.6814 9.66658ZM12.0147 8.99992C12.1915 8.99992 12.3611 8.92968 12.4861 8.80465C12.6112 8.67963 12.6814 8.51006 12.6814 8.33325C12.6814 8.15644 12.6112 7.98687 12.4861 7.86185C12.3611 7.73682 12.1915 7.66658 12.0147 7.66658H10.0147V7.33325C10.0147 7.15644 9.9445 6.98687 9.81947 6.86185C9.69445 6.73682 9.52488 6.66658 9.34807 6.66658C9.17126 6.66658 9.00169 6.73682 8.87667 6.86185C8.75164 6.98687 8.6814 7.15644 8.6814 7.33325V7.66658H6.6814C6.50459 7.66658 6.33502 7.73682 6.21 7.86185C6.08497 7.98687 6.01474 8.15644 6.01474 8.33325C6.01474 8.51006 6.08497 8.67963 6.21 8.80465C6.33502 8.92968 6.50459 8.99992 6.6814 8.99992H10.1376C9.98677 9.61262 9.70836 10.1866 9.32056 10.6844C9.16188 10.4787 9.02153 10.2594 8.90113 10.0292C8.8612 9.95133 8.80633 9.88207 8.73963 9.82539C8.67294 9.76871 8.59574 9.72573 8.51243 9.69888C8.42913 9.67204 8.34135 9.66187 8.25411 9.66895C8.16687 9.67603 8.08189 9.70023 8.004 9.74015C7.92611 9.78008 7.85685 9.83496 7.80017 9.90165C7.7435 9.96834 7.70051 10.0455 7.67367 10.1289C7.61946 10.2971 7.6343 10.48 7.71494 10.6373C7.89448 10.9843 8.10871 11.3122 8.35434 11.6159C7.87065 11.9671 7.32064 12.2164 6.7377 12.3486C6.56527 12.3866 6.41496 12.4915 6.31977 12.6402C6.22458 12.789 6.19228 12.9694 6.22995 13.1419C6.26763 13.3144 6.3722 13.4649 6.52073 13.5604C6.66926 13.6559 6.84961 13.6886 7.0222 13.6513C7.85866 13.4663 8.64329 13.097 9.31887 12.5702C10.0001 13.0973 10.7899 13.4664 11.6312 13.651C11.7167 13.6698 11.8051 13.6717 11.8913 13.6564C11.9775 13.6411 12.0599 13.6089 12.1336 13.5618C12.2074 13.5147 12.2712 13.4535 12.3213 13.3817C12.3715 13.3099 12.407 13.229 12.4258 13.1435C12.4447 13.058 12.4465 12.9696 12.4312 12.8834C12.4159 12.7972 12.3838 12.7149 12.3367 12.6411C12.2895 12.5673 12.2283 12.5035 12.1566 12.4534C12.0848 12.4033 12.0039 12.3678 11.9184 12.3489C11.3316 12.2184 10.777 11.9713 10.2876 11.6222C10.9041 10.8634 11.3196 9.96156 11.4959 8.99992H12.0147ZM4.03458 6.49504C4.07792 6.66611 4.18732 6.81302 4.3388 6.90357C4.49028 6.99412 4.67148 7.02092 4.84268 6.97809C5.01389 6.93527 5.16113 6.82632 5.25214 6.67511C5.34315 6.52391 5.3705 6.3428 5.3282 6.17146L4.15664 1.48494C4.07435 1.15597 3.88447 0.863943 3.61717 0.655269C3.34987 0.446596 3.02049 0.333252 2.68138 0.333252C2.34227 0.333252 2.0129 0.446596 1.7456 0.655269C1.4783 0.863943 1.28841 1.15597 1.20612 1.48494L0.0345758 6.17146C-0.00772567 6.3428 0.0196257 6.52391 0.110635 6.67511C0.201644 6.82632 0.348887 6.93527 0.520091 6.97809C0.691295 7.02092 0.872494 6.99412 1.02397 6.90357C1.17545 6.81302 1.28485 6.66611 1.3282 6.49504L1.70194 4.99992H3.66084L4.03458 6.49504ZM2.03527 3.66658L2.49974 1.80851C2.5137 1.77162 2.53855 1.73986 2.57099 1.71744C2.60344 1.69502 2.64194 1.68302 2.68138 1.68302C2.72082 1.68302 2.75932 1.69502 2.79177 1.71744C2.82422 1.73986 2.84907 1.77162 2.86302 1.80851L3.3275 3.66658H2.03527Z" fill="#01B075"/>
</svg>
