<?xml version="1.0" encoding="utf-8"?>
<!-- Generator: Adobe Illustrator 23.0.3, SVG Export Plug-In . SVG Version: 6.00 Build 0)  -->
<svg version="1.1" id="Layer_1" xmlns="http://www.w3.org/2000/svg" xmlns:xlink="http://www.w3.org/1999/xlink" x="0px" y="0px"
	 viewBox="0 0 12.3 12.1" style="enable-background:new 0 0 12.3 12.1;" xml:space="preserve">
<style type="text/css">
	.st0{fill:#01B075;stroke:#F4F5F7;stroke-width:0.2;}
</style>
<path class="st0" d="M0.3,3.8h2.4v7.5H0.3V3.8z"/>
<path class="st0" d="M6.7,4.9v0.3L6.9,5l0,0l0,0l0,0l0,0l0,0l0,0l0,0L7,4.9c0.1-0.1,0.3-0.3,0.5-0.4c0.4-0.3,1-0.6,1.6-0.6
	c0.8,0,1.5,0.3,2,0.8C11.7,5.1,12,5.9,12,7.1v4.3H9.6v-4c0-0.5-0.1-1-0.3-1.3C9.1,5.7,8.7,5.5,8.2,5.5C7.5,5.5,7,6,6.8,6.5
	C6.7,6.7,6.7,7,6.7,7.2v4.2H4.4V3.9h2.4v1H6.7z"/>
<path class="st0" d="M0.1,1.5c0-0.4,0.1-0.7,0.4-0.9c0.2-0.2,0.6-0.4,1-0.4s0.7,0.1,1,0.4c0.2,0.2,0.4,0.5,0.4,0.9
	c0,0.3-0.1,0.7-0.4,0.9c-0.2,0.2-0.6,0.4-1,0.4l0,0C0.6,2.8,0.1,2.2,0.1,1.5z"/>
</svg>
