<svg width="766" height="412" viewBox="0 0 766 412" fill="none" xmlns="http://www.w3.org/2000/svg">
<path fill-rule="evenodd" clip-rule="evenodd" d="M245.149 179.964C243.77 173.746 243.063 166.754 240.371 160.905C236.972 153.51 232.059 146.787 228.795 139.359C225.766 132.468 225.127 114.619 225.127 114.619C225.127 114.619 220.921 111.123 219.272 108.299C217.253 104.871 216.445 101.274 217.791 97.5431C219.339 93.4086 222.368 94.1481 225.834 92.8372C229.199 91.5598 231.857 87.7951 233.977 85.0388C242.659 73.6437 255.985 58.8872 272.037 62.3831C281.795 64.5007 284.151 66.3159 286.473 75.4925C287.213 78.4168 287.382 98.2154 287.382 98.2154C287.382 98.2154 293.641 99.4255 292.564 104.804C292.261 106.316 291.42 109.476 290.377 111.19C288.29 114.585 285.531 116.367 285.531 116.367C285.531 116.367 283.512 124.064 280.483 129.611C277.892 134.317 272.037 139.863 272.037 139.863C272.037 139.863 269.109 146.081 268.032 147.997C262.749 157.275 257.533 166.082 251.005 174.552C249.659 176.3 247.942 177.779 246.63 179.561C246.294 179.998 246.058 181.04 245.52 180.804C245.284 180.603 245.217 180.233 245.149 179.964Z" fill="#FFEDDE"/>
<path fill-rule="evenodd" clip-rule="evenodd" d="M401.492 166.552C401.492 166.552 399.641 162.048 398.8 160.199C396.512 155.157 396.209 149.712 395.536 144.266C394.156 133.14 388.57 123.022 387.46 111.829C387.258 109.812 386.417 106.283 387.191 102.686C387.763 99.9634 390.017 96.7701 390.017 96.7701C390.017 96.7701 385.071 92.5011 383.59 90.2826C382.109 88.0641 380.359 84.938 378.912 80.9044C377.028 75.6606 375.884 71.0219 375.884 71.0219C375.884 71.0219 375.581 71.8286 373.192 69.1395C371.139 66.8202 368.851 62.6185 369.456 58.5848C369.995 54.7192 374.235 53.4083 374.235 53.4083C374.235 53.4083 374.47 42.6183 376.59 36.8703C378.206 32.5341 380.831 29.1055 382.378 27.2231C387.359 21.2735 398.43 21.5424 405.598 25.6097C410.208 28.2652 413.068 32.3324 415.592 36.9375C417.241 39.9628 418.082 43.8284 420.774 46.1477C425.62 50.2822 435.446 49.7108 439.585 54.8537C441.975 57.8117 439.686 63.9294 438.307 66.6857C435.884 71.5261 430.331 72.5345 430.331 72.5345C430.331 72.5345 429.759 89.1734 430.802 93.3751C431.475 96.0642 432.586 97.9802 432.586 97.9802C432.586 97.9802 431.947 101.98 430.365 105.51C428.548 109.611 425.654 113.476 424.442 116.132C420.573 124.535 417.006 133.409 413.674 142.048C411.386 147.997 408.088 153.779 405.228 159.527C404.252 161.443 401.492 166.552 401.492 166.552Z" fill="#FFEDDE"/>
<path fill-rule="evenodd" clip-rule="evenodd" d="M553.024 166.25C553.024 166.25 553.73 161.275 552.687 151.56C551.678 142.216 552.586 136.804 545.082 130.249C537.544 123.695 528.694 120.972 528.694 120.972C528.694 120.972 526.372 123.594 522.065 125.443C519.608 126.485 515.974 127.695 513.113 126.989C507.763 125.644 505.306 122.283 502.244 116.636C499.216 110.989 496.288 103.526 495.009 100.938C491.173 93.2069 487.337 79.3244 486.159 74.9882C485.015 70.6521 484.207 62.1142 488.043 57.5427C489.861 55.3914 496.423 53.1057 502.513 55.9965C509.21 59.1561 515.57 67.7277 520.18 70.0134C527.886 73.879 536.905 72.0302 545.149 73.4756C547.471 73.879 552.149 70.5176 554.067 72.0638C554.74 72.6017 557.466 73.005 558.441 76.1983C560.158 81.711 559.552 85.4085 559.552 85.4085C559.552 85.4085 567.09 95.1229 569.445 97.0389C570.791 98.1481 578.733 103.493 578.733 103.493C578.733 103.493 571.363 115.392 570.522 119.896C569.378 125.947 564.398 146.518 559.619 158.216C557.062 164.535 553.024 166.25 553.024 166.25Z" fill="#FFEDDE"/>
<path fill-rule="evenodd" clip-rule="evenodd" d="M196.087 200.569C196.087 200.569 196.121 198.721 197.13 197.712C198.106 196.704 200.058 196.502 200.058 196.502L357.343 195.594C357.343 195.594 360.102 195.662 361.684 196.973C363.266 198.284 363.669 200.805 363.669 200.805L374.741 289.982L406.541 289.242L407.954 295.427L374.37 306.621L218.566 306.15C218.566 306.15 217.085 305.713 216.177 304.806C215.268 303.898 214.932 302.52 214.932 302.52L196.087 200.569Z" fill="#DBE6ED"/>
<path fill-rule="evenodd" clip-rule="evenodd" d="M219.137 95.3919C219.137 95.3919 216.815 87.4926 215.906 80.9043C215.3 76.4673 215.906 73.5765 216.041 70.5849C216.209 67.0555 216.815 63.1226 218.531 60.131C220.55 56.6016 223.612 53.1058 226.069 49.8452C229.501 45.2737 238.486 40.5006 243.971 38.9543C249.793 37.3073 256.826 39.7947 260.898 41.6098C262.479 42.3157 265.037 43.3914 267.022 43.8956C270.589 44.7695 276.781 44.3326 280.314 45.2065C284.924 46.3494 291.217 50.7192 293.169 54.5847C294.38 56.9713 296.097 62.3495 295.726 65.879C295.525 67.795 294.616 69.7446 294.38 71.5597C293.876 75.4925 294.078 79.0556 294.078 82.1144C294.078 83.1228 292.9 86.2489 291.789 88.0641C289.938 91.0893 287.785 92.9044 287.785 92.9044C287.785 92.9044 288.088 82.2825 287.516 80.0976C286.943 77.9127 286.439 73.7782 283.208 70.8538C279.978 67.9294 273.517 66.2151 265.34 66.1479C253.091 66.0807 250.398 72.6354 246.394 76.4673C243.029 79.6942 239.832 81.1733 239.832 81.1733C239.832 81.1733 236.299 90.3834 231.352 92.4339C227.246 94.1146 225.429 92.5347 222.603 93.1734C220.483 93.6439 219.137 95.3919 219.137 95.3919Z" fill="#E3AD93"/>
<path fill-rule="evenodd" clip-rule="evenodd" d="M558.206 87.4928L561.201 90.4844L567.83 83.3919C567.83 83.3919 572.507 84.7028 576.781 82.3162C581.055 79.9297 581.627 75.1565 582.906 71.896C584.555 67.6943 580.449 61.5093 580.449 61.5093C580.449 61.5093 579.238 54.4504 573.382 53.1059C571.128 52.6017 567.224 56.2656 565.205 54.8202C562.547 52.9042 562.782 46.6857 558.778 40.0974C556.523 36.3662 553.36 34.0133 550.769 31.7948C546.462 28.0636 539.597 25.509 536.097 24.6686C527.179 22.4501 515.906 27.3914 512.137 28.9376C509.984 29.8452 503.859 34.0469 502.177 35.7612C498.946 38.9881 496.422 40.6016 492.721 43.526C485.553 49.2403 478.284 54.8874 475.66 64.064C474.953 66.5514 475.895 73.5095 479.361 75.6271C482.827 77.7784 486.933 77.8456 486.933 77.8456C486.933 77.8456 483.803 66.2489 486.327 60.7698C487.74 57.7446 493.125 57.3412 495.144 56.9379C496.793 56.6017 499.619 55.6269 504.768 58.9547C509.916 62.2824 514.056 69.0052 521.593 75.291C522.401 75.9633 527.179 78.3834 528.088 78.7532C531.857 80.2658 540.472 79.4255 544.173 76.938C548.716 73.9128 549.255 70.7867 555.682 72.9044C560.696 74.6187 558.206 87.4928 558.206 87.4928Z" fill="#F3C0AF"/>
<path fill-rule="evenodd" clip-rule="evenodd" d="M407.685 83.9296C407.281 81.4758 396.917 81.9464 394.426 82.5514C392.576 83.022 390.96 83.022 392.508 86.0809C394.797 90.6523 400.988 91.5263 404.421 89.1733C405.935 88.1649 408.122 86.6523 407.685 83.9296Z" fill="#F2C6C3"/>
<path fill-rule="evenodd" clip-rule="evenodd" d="M331.802 195.662C331.802 195.662 331.263 189.981 331.095 187.628C330.994 186.284 330.187 176.737 330.052 169.409C329.715 154.048 328.975 145.813 332.811 130.787C334.191 125.409 334.191 123.325 337.96 118.821C339.945 116.468 342.873 113.442 349.435 111.325C354.617 109.644 366.126 109.005 373.327 106.552C382.379 103.459 385.341 98.3835 388.134 98.6861C390.018 98.8541 386.754 101.005 386.653 107.56C386.586 112.232 389.211 117.241 390.691 120.905C392.643 125.712 394.595 129.88 395.739 133.611C396.681 136.602 396.008 140.636 395.907 144.804C395.806 148.233 396.412 154.787 397.96 158.519C399.508 162.283 400.955 166.451 401.762 165.779C402.772 164.972 404.017 160.737 405.565 157.947C407.113 155.157 408.526 152.132 409.502 148.3C410.882 142.888 410.209 137.14 412.194 131.762C414.718 124.905 422.357 119.056 425.823 112.837C426.967 110.787 429.558 106.047 430.938 101.711C431.712 99.2239 431.005 96.2659 432.116 95.5264C434.303 94.081 433.63 99.392 438.173 103.526C442.716 107.661 447.662 108.501 448.537 108.77C449.412 109.073 458.464 110.585 462.233 111.93C468.425 114.115 478.521 115.358 482.357 121.14C484.914 125.006 487.068 131.09 488.044 139.191C489.289 149.51 488.919 162.182 488.077 167.796C486.361 179.594 485.655 189.41 483.871 198.015C481.818 207.864 478.722 216.469 477.41 230.015C476.602 238.385 488.313 265.309 488.313 265.309L460.955 276.536L445.946 275.898C445.946 275.898 430.299 279.461 423.333 278.789C422.02 278.654 423.03 276.335 423.4 273.881C423.535 273.041 422.66 267.696 421.314 264.402C419.463 259.797 410.411 252.234 410.411 252.234C410.411 252.234 403.983 253.578 398.969 254.183C397.32 254.385 391.532 275.663 391.532 275.663L377.399 275.931L370.4 255.225L364.14 207.326C364.14 207.326 363.198 197.746 361.617 196.771C358.252 194.653 353.641 195.628 348.493 195.628C340.349 195.628 331.802 195.662 331.802 195.662Z" fill="#F2CECE"/>
<path fill-rule="evenodd" clip-rule="evenodd" d="M377.701 50.6855C375.076 55.3914 371.543 55.6267 371.543 55.6267C371.543 55.6267 369.087 58.4839 370.13 62.3159C371.139 66.1814 375.648 71.0554 375.648 71.0554C375.648 71.0554 377.028 78.316 380.393 84.7362C383.758 91.1565 389.075 96.77 389.075 96.77C389.075 96.77 385.878 101.61 378.374 104.669C370.904 107.728 359.126 108.972 359.126 108.972C359.126 108.972 363.298 99.7952 362.996 95.6271C362.592 90.0808 359.058 86.6522 357.41 82.8875C356.333 80.4337 356.602 76.7698 356.602 76.1311C356.434 69.7445 361.044 62.215 364.947 49.8788C367.168 42.8871 368.582 34.8198 370.433 28.3996C372.62 20.9709 375.918 16.265 378.542 13.2734C383.422 7.65988 388.268 3.15564 392.676 2.38252C396.108 1.77747 401.122 1.8447 403.007 1.60941C409.333 0.836292 410.78 1.13881 416.097 1.17242C417.914 1.17242 426.361 2.8195 431.812 7.52542C436.792 11.828 438.475 14.9541 441.033 20.534C442.951 24.7021 446.686 39.8283 448.537 48.8704C450.085 56.3326 456.445 65.1394 458.733 71.5933C460.382 76.232 462.233 86.2489 460.988 92.5346C459.776 98.8204 457.421 111.056 457.421 111.056C457.421 111.056 458.06 114.585 459.877 117.14C462.098 120.266 466.204 123.19 465.463 123.728C464.454 124.501 461.391 125.476 458.329 124.3C456.916 123.762 455.334 122.115 453.685 120.4C452.272 118.989 450.791 117.274 449.614 118.753C448.941 119.627 448.84 123.056 447.527 125.913C446.619 127.863 445.138 129.443 443.119 130.686C440.225 132.434 435.648 131.022 435.144 131.392C431.072 134.552 425.486 134.518 424.106 133.409C422.39 132.031 430.264 129.342 431.98 122.081C433.697 114.787 430.668 104.535 430.668 104.535C430.668 104.535 428.649 96.5347 428.413 89.7783C428.211 84.1648 428.582 79.5597 428.582 79.5597C428.582 79.5597 424.813 75.9294 423.366 71.0891C421.347 64.1646 420.606 54.3158 419.967 50.9544C418.453 42.9207 416.131 36.1644 414.751 32.7357C413.371 29.3071 409.468 26.2819 407.617 25.7441C404.353 24.8029 399.675 25.8785 396.378 26.013C394.224 26.0802 392.306 25.408 390.69 25.9458C384.431 28.0298 383.355 30.8198 381.941 36.7694C380.831 41.6434 380.326 45.9796 377.701 50.6855Z" fill="#FFDF9F"/>
<path fill-rule="evenodd" clip-rule="evenodd" d="M422.861 278.251C422.861 278.251 423.433 271.461 422.962 268.839C422.087 263.965 418.722 259.662 416.097 256.435C414.246 254.183 410.376 251.965 410.376 251.965C410.376 251.965 404.252 253.477 400.483 254.015C396.343 254.62 390.118 254.587 386.147 254.519C382.58 254.452 370.398 255.259 370.398 255.259L373.461 279.125L379.821 272.839C379.821 272.839 388.907 274.217 395.704 275.663C404.824 277.612 422.861 278.251 422.861 278.251Z" fill="#FFEDDE"/>
<path fill-rule="evenodd" clip-rule="evenodd" d="M574.829 166.754L592.294 224.334L587.751 236.267C587.751 236.267 564.196 250.15 552.754 255.561C547.976 257.814 529.972 267.461 520.079 268.704C514.123 269.444 510.758 268.738 504.364 268.402C496.086 267.931 485.822 264.335 477.881 264.738C475.996 264.839 466.607 270.822 462.704 274.688C460.718 276.637 462.805 278.789 462.805 278.789C462.805 278.789 461.526 279.831 460.55 282.083C459.642 284.234 464.723 284.469 464.723 284.469C464.723 284.469 464.487 285.411 465.833 286.251C467.482 287.293 471.049 286.251 471.049 286.251C471.049 286.251 471.588 287.427 473.977 287.226C479.193 286.789 485.015 282.284 490.264 283.158C494.942 283.932 506.888 289.411 511.767 289.209C518.094 288.974 524.386 286.755 524.386 286.755L522.3 273.948C522.3 273.948 532.597 272.335 541.818 272.234C551.072 272.099 559.283 273.41 559.283 273.41L559.215 279.528C559.215 279.528 589.165 271.965 594.684 269.31C604.745 264.536 620.763 259.595 626.719 248.906C629.983 243.024 627.056 228.637 627.056 228.637C627.056 228.637 624.128 200.67 622.849 190.62C622.042 184.368 616.994 161.846 616.994 161.846C616.994 161.846 613.663 161.443 611.644 160.703C603.971 157.981 593.304 159.224 585.429 161.208C582.569 161.88 574.829 166.754 574.829 166.754Z" fill="#FFEDDE"/>
<path fill-rule="evenodd" clip-rule="evenodd" d="M208.033 266.587C208.033 266.587 202.716 269.444 201.033 271.427C197.567 275.528 193.462 282.15 193.462 282.15C193.462 282.15 195.986 283.898 197.837 286.049C199.519 287.999 200.495 291.394 200.495 291.394L212.508 288.436L208.033 266.587Z" fill="#FFEDDE"/>
<path fill-rule="evenodd" clip-rule="evenodd" d="M223.781 113.98C223.781 113.98 225.161 150.25 225.161 156.737C225.161 163.023 226.17 171.863 226.473 178.149C226.675 182.384 228.19 196.3 228.19 196.3L259.653 196.166C259.653 196.166 261.336 189.847 261.74 187.897C263.86 177.376 264.869 166.182 266.148 155.46C266.686 150.855 266.686 143.09 266.686 143.09L262.682 144.098C262.682 144.098 260.528 150.888 260.057 151.762C258.072 155.527 254.976 157.14 254.303 159.998C253.731 162.552 253.293 164.031 252.856 165.846C251.947 169.678 249.962 174.317 249.356 176.267C249.154 176.972 246.092 180.435 245.419 180.132C244.376 179.662 244.578 173.846 244.376 170.552C244.174 167.157 244.544 163.964 244.039 160.569C243.4 156.166 237.309 146.989 235.862 144.67C234.415 142.35 231.723 136.804 229.401 129.073C227.247 122.048 227.214 115.358 227.214 115.358L223.781 113.98Z" fill="#FDFDFD"/>
<path fill-rule="evenodd" clip-rule="evenodd" d="M219.743 109.745C219.743 109.745 211.768 110.115 203.692 111.829C199.115 112.804 186.765 116.737 183.266 117.51C176.233 119.089 167.719 119.56 161.291 120.266C154.427 121.005 148.942 122.115 141.134 126.249C137.601 128.132 130.669 136.468 128.212 139.594C120.506 149.476 112.127 182.451 112.127 182.451C112.127 182.451 109.974 186.115 107.046 194.183C104.589 200.905 101.594 211.359 98.7341 218.855C97.5563 221.948 92.5423 226.553 91.1963 229.746C89.581 233.544 90.9607 241.612 88.7397 245.309C85.8457 250.15 69.1548 265.007 69.1548 265.007C69.1548 265.007 64.0398 271.192 63.0303 272.738C60.5065 276.503 56.6366 294.822 54.8194 301.074C51.0169 314.184 49.166 318.587 48.9641 322.386C48.7286 326.184 51.5553 330.318 51.5553 330.318L73.7986 338.05C73.7986 338.05 67.6742 327.226 67.3713 326.083C66.4964 322.991 68.751 320.873 70.3326 318.419C73.1256 314.083 81.7067 313.982 85.7448 310.89C93.3836 305.041 98.9024 294.755 106.709 289.142C111.454 285.747 117.209 284.469 122.761 283.192C133.395 280.738 144.533 279.326 155.436 279.259C163.109 279.225 179.968 279.293 179.968 279.293C179.968 279.293 190.13 266.587 195.851 261.881C198.611 259.629 206.047 255.158 206.047 255.158L196.625 204.872C196.625 204.872 194.976 199.729 196.625 198.384C198.611 196.771 200.832 197.006 200.832 197.006L227.954 196.737C227.954 196.737 225.229 153.611 224.657 141.241C224.455 136.838 223.983 113.644 223.983 113.644L219.743 109.745Z" fill="#D3BEA9"/>
<path fill-rule="evenodd" clip-rule="evenodd" d="M266.35 143.359C266.35 143.359 266.384 150.384 266.283 151.493C265.576 158.754 264.802 163.527 263.961 171.191C263.321 176.905 259.653 195.931 259.653 195.931L315.178 196.166C315.178 196.166 313.327 183.964 312.183 177.409C311.039 170.821 309.289 164.771 306.63 159.661C304.544 155.661 298.251 150.989 295.155 149.308C292.059 147.628 286.305 145.443 281.964 142.417C280.551 141.443 274.965 137.342 274.965 137.342L266.35 143.359Z" fill="#D3BEA9"/>
<path fill-rule="evenodd" clip-rule="evenodd" d="M73.7646 337.277C81.7063 341.579 96.8829 346.285 102.637 349.579C108.392 352.873 121.751 358.588 121.751 358.588C121.751 358.588 132.318 356.974 135.38 355.63C138.442 354.252 142.278 352.537 142.278 352.537C142.278 352.537 140.326 375.126 140.764 394.723C140.899 400.975 141.168 406.723 141.504 411.966H193.226C193.428 408.437 193.563 405.345 193.563 403.294C193.697 392.235 197.5 366.487 197.5 366.487C197.5 366.487 191.375 319.024 190.736 313.075C190.096 307.125 188.616 298.52 190.029 296.839C191.409 295.159 201.201 291.226 201.201 291.226C201.201 291.226 199.351 288.2 198.644 287.158C196.793 284.469 194.236 283.461 192.789 282.318C191.274 281.142 186.664 280.2 184.847 279.797C175.997 277.814 164.993 277.948 160.584 278.184C156.143 278.419 147.73 279.058 139.687 279.763C131.644 280.469 111.42 285.276 111.42 285.276C111.42 285.276 107.281 286.587 103.579 290.15C98.4981 295.024 94.1572 302.386 89.6816 306.352C83.4225 311.932 76.0192 313.949 72.5531 315.999C69.0534 318.05 65.5537 321.781 65.5537 321.781C65.5537 321.781 69.7265 335.092 73.7646 337.277Z" fill="#C6CCD3"/>
<path fill-rule="evenodd" clip-rule="evenodd" d="M206.148 255.192C206.148 255.192 201.908 255.461 198.139 257.612C194.37 259.763 186.799 267.495 184.645 270.89C183.939 272.032 180.708 278.755 180.708 278.755C180.708 278.755 185.217 279.495 188.347 280.738C190.4 281.579 193.428 282.621 193.428 282.621C193.428 282.621 195.784 278.184 198.913 273.982C202.85 268.738 208.033 266.621 208.033 266.621L206.148 255.192Z" fill="#FDFDFD"/>
<path fill-rule="evenodd" clip-rule="evenodd" d="M576.68 242.25C576.68 242.25 574.728 238.788 572.339 235.965C567.897 230.654 557.701 224.368 554.639 220.536C552.72 218.149 551.509 217.41 550.129 214.149C548.75 210.922 548.951 200.805 550.062 195.057C550.802 191.124 553.091 164.098 553.091 164.098C553.091 164.098 557.095 161.645 558.609 157.308C562.917 144.804 562.782 128.199 567.056 115.762C568.974 110.215 571.666 106.249 577.757 103.795C580.819 102.552 587.886 104.602 590.14 106.047C597.106 110.552 601.952 110.753 608.514 115.762C616.321 121.711 623.893 128.468 629.142 136.737C631.262 140.098 642.67 167.258 647.987 178.855C649.737 182.653 659.731 209.309 661.515 211.931C662.894 213.948 668.11 223.998 668.11 223.998H657.678C657.678 223.998 645.833 225.612 639.574 227.83C637.185 228.67 627.695 234.149 627.695 234.149C627.695 234.149 625.272 207.695 624.128 200.233C622.748 191.359 617.734 161.577 617.734 161.577C617.734 161.577 605.62 158.922 602.928 158.72C597.981 158.283 587.751 159.493 583.444 161.577C581.122 162.72 574.829 166.787 574.829 166.787L592.227 223.796C592.227 223.796 594.044 229.007 593.775 231.662C593.506 234.318 588.424 235.998 587.415 236.603C584.521 238.351 576.68 242.25 576.68 242.25Z" fill="white"/>
<path fill-rule="evenodd" clip-rule="evenodd" d="M649.771 225.107C645.363 225.948 628.032 234.755 628.032 234.755C628.032 234.755 630.321 246.486 623.254 253.477C615.279 261.343 593.54 269.982 593.54 269.982L594.718 281.478C594.718 281.478 578.935 281.041 574.763 282.251C574.763 282.251 567.931 282.89 568.032 283.629C568.167 284.705 575.368 285.411 579.608 285.747C583.882 286.083 596.737 289.243 602.188 290.755C607.64 292.301 615.11 295.259 615.952 298.083C616.49 299.898 615.48 303.663 614.706 309.814C613.495 319.26 612.082 331.764 612.082 331.764L607.741 365.176C607.741 365.176 618.139 367.462 625.946 368.571C633.753 369.68 648.593 370.42 648.593 370.42C648.593 370.42 659.496 365.176 670.534 359.428C679.519 354.756 690.119 352.033 698.531 348.84C704.656 346.52 716.737 344.235 716.737 344.235C716.737 344.235 719.765 334.856 720.034 328.201C720.304 321.545 718.385 305.881 713.977 297.982C709.636 290.217 704.959 279.293 700.214 271.461C694.594 262.183 688.941 256.032 683.691 246.856C681.201 242.519 667.539 224.166 667.539 224.166C667.539 224.166 656.602 223.797 649.771 225.107Z" fill="#E3D3B2"/>
<path d="M648.626 405.076C631.161 405.076 615.211 403.899 603.399 401.849C602.861 401.748 602.524 401.244 602.625 400.739C602.726 400.202 603.231 399.866 603.736 399.966C639.44 406.219 713.102 404.168 751.935 386.554C752.44 386.353 753.012 386.554 753.214 387.025C753.45 387.496 753.214 388.067 752.743 388.302C726.428 400.202 684.33 405.076 648.626 405.076Z" fill="#697787"/>
<path d="M48.9307 321.31C48.897 321.31 48.8297 321.31 48.7961 321.31C33.6867 318.957 16.7266 318.083 1.01149 318.89C0.506725 318.957 0.0356101 318.52 0.001959 317.982C-0.0316921 317.445 0.37212 317.008 0.910538 316.974C16.7266 316.167 33.855 317.041 49.0989 319.394C49.6373 319.461 49.9738 319.966 49.9065 320.503C49.8056 320.974 49.3681 321.31 48.9307 321.31Z" fill="#697787"/>
<path d="M22.9523 375.058C22.4476 375.058 22.0101 374.655 21.9764 374.117C21.9428 373.579 22.3802 373.142 22.9187 373.109C54.4161 371.932 93.1822 371.966 127.372 371.999H140.327C140.866 371.999 141.303 372.436 141.303 372.974C141.303 373.512 140.866 373.949 140.327 373.949H127.372C93.1822 373.949 54.4834 373.915 23.0196 375.058C22.986 375.058 22.986 375.058 22.9523 375.058Z" fill="#697787"/>
<path d="M765.06 310.688C764.992 310.688 764.891 310.688 764.79 310.654C756.378 308.369 728.245 302.486 716.77 304.705C716.266 304.806 715.727 304.469 715.626 303.932C715.525 303.394 715.862 302.89 716.4 302.789C728.346 300.503 756.445 306.385 765.295 308.772C765.8 308.906 766.103 309.444 765.968 309.948C765.867 310.419 765.463 310.688 765.06 310.688Z" fill="#697787"/>
<path d="M106.239 196.468C106.104 196.468 105.936 196.435 105.801 196.367C81.2695 183.493 55.0553 176.166 27.8988 174.519C27.3604 174.485 26.9566 174.014 26.9902 173.51C27.0239 172.972 27.495 172.569 27.9998 172.603C55.4591 174.25 81.9088 181.678 106.71 194.687C107.181 194.922 107.349 195.527 107.114 195.998C106.945 196.267 106.609 196.468 106.239 196.468Z" fill="#697787"/>
<path d="M621.403 127.224C620.965 127.224 620.562 126.922 620.461 126.451C620.36 125.913 620.663 125.409 621.201 125.308C643.276 120.434 664.14 118.451 683.186 119.358C683.725 119.392 684.129 119.829 684.095 120.367C684.061 120.905 683.624 121.308 683.085 121.274C664.173 120.367 643.512 122.384 621.605 127.19C621.537 127.224 621.47 127.224 621.403 127.224Z" fill="#697787"/>
<path d="M485.352 192.099C485.049 192.099 484.78 191.964 484.578 191.729C484.242 191.292 484.309 190.687 484.746 190.384C505.408 174.283 527.954 160.434 551.779 149.207C552.251 148.972 552.823 149.174 553.058 149.678C553.294 150.149 553.092 150.72 552.587 150.955C528.897 162.115 506.451 175.897 485.924 191.897C485.789 192.031 485.554 192.099 485.352 192.099Z" fill="#697787"/>
<path d="M258.947 145.14C258.509 145.14 258.038 145.14 257.567 145.106C246.698 144.501 233.439 135.258 229.166 118.753C229.031 118.249 229.334 117.711 229.872 117.577C230.377 117.442 230.915 117.745 231.05 118.283C235.088 133.879 247.505 142.619 257.668 143.19C277.96 144.3 284.051 117.879 285.06 112.568C285.161 112.03 285.666 111.694 286.204 111.795C286.743 111.896 287.079 112.4 286.978 112.938C285.935 118.383 279.777 145.14 258.947 145.14Z" fill="#1D2B4B"/>
<path d="M228.594 116.132C225.734 116.132 223.008 114.72 220.686 112.064C217.624 108.501 215.706 103.022 216.312 99.5936C216.917 96.1313 218.903 93.4758 221.629 92.4338C224.119 91.4926 226.845 92.0304 229.301 93.98C229.705 94.3162 229.806 94.9212 229.469 95.3246C229.133 95.728 228.527 95.8288 228.123 95.4927C226.239 93.98 224.186 93.5431 222.335 94.249C220.283 95.0221 218.735 97.1734 218.263 99.9297C217.826 102.451 219.307 107.426 222.201 110.787C223.58 112.367 225.869 114.283 228.796 114.182C229.368 114.148 229.772 114.585 229.772 115.123C229.772 115.661 229.368 116.098 228.83 116.098C228.729 116.132 228.662 116.132 228.594 116.132Z" fill="#1D2B4B"/>
<path d="M262.515 117.846C262.212 117.846 261.909 117.711 261.741 117.442C261.438 117.005 261.539 116.4 261.942 116.098C264.769 114.081 264.365 113.173 263.49 111.19C262.649 109.241 261.505 106.585 263.356 102.249C263.558 101.745 264.13 101.543 264.635 101.745C265.139 101.946 265.341 102.518 265.139 103.022C263.591 106.585 264.5 108.636 265.274 110.451C266.183 112.568 267.125 114.753 263.053 117.711C262.918 117.779 262.716 117.846 262.515 117.846Z" fill="#1D2B4B"/>
<path d="M257.163 95.6271C256.961 95.6271 256.759 95.5599 256.591 95.459C253.394 93.1397 249.02 93.7447 247.404 94.5851C246.933 94.8204 246.361 94.6523 246.092 94.1817C245.856 93.7111 246.025 93.1397 246.496 92.8708C248.784 91.6607 253.966 91.1565 257.702 93.8792C258.139 94.1817 258.24 94.7868 257.904 95.2237C257.769 95.4926 257.466 95.6271 257.163 95.6271Z" fill="#1D2B4B"/>
<path d="M281.662 97.1061C281.46 97.1061 281.258 97.0389 281.056 96.9044C278.734 95.0557 274.46 95.7279 272.542 96.333C272.038 96.5011 271.499 96.1985 271.331 95.6943C271.163 95.1901 271.465 94.6523 271.97 94.4842C274.393 93.7111 279.306 93.0725 282.267 95.3918C282.671 95.7279 282.772 96.333 282.436 96.7364C282.234 96.9717 281.965 97.1061 281.662 97.1061Z" fill="#1D2B4B"/>
<path d="M226.608 108.098C226.238 108.098 225.868 107.863 225.7 107.493C224.555 104.602 222.065 102.753 222.065 102.72C221.628 102.417 221.527 101.812 221.863 101.375C222.166 100.938 222.772 100.837 223.209 101.173C223.344 101.274 226.171 103.358 227.517 106.787C227.719 107.291 227.483 107.829 226.978 108.031C226.844 108.064 226.709 108.098 226.608 108.098Z" fill="#1D2B4B"/>
<path d="M286.338 102.081C286.271 102.081 286.204 102.081 286.136 102.047C285.632 101.947 285.295 101.409 285.396 100.905C286.439 96.1986 289.401 80.2993 284.319 73.0388C282.906 70.9883 281.021 69.8455 278.531 69.5093C277.993 69.4421 277.623 68.9379 277.724 68.4337C277.791 67.8959 278.296 67.5261 278.8 67.627C281.795 68.0639 284.185 69.5093 285.901 71.9967C291.285 79.7279 288.66 95.123 287.281 101.409C287.18 101.778 286.776 102.081 286.338 102.081Z" fill="#1D2B4B"/>
<path d="M285.969 116.468C285.599 116.468 285.262 116.266 285.094 115.93C284.858 115.459 285.06 114.888 285.531 114.653C288.425 113.241 291.454 107.459 291.353 103.627C291.319 101.913 290.68 100.804 289.468 100.299C288.964 100.098 288.762 99.5264 288.964 99.0222C289.166 98.518 289.738 98.3163 290.242 98.518C292.127 99.3247 293.204 101.106 293.271 103.56C293.406 108.232 289.973 114.585 286.373 116.367C286.272 116.434 286.103 116.468 285.969 116.468Z" fill="#1D2B4B"/>
<path d="M262.716 130.249C258.712 130.249 253.967 129.207 251.376 126.854C250.972 126.484 250.938 125.879 251.309 125.476C251.679 125.073 252.284 125.073 252.688 125.409C256.02 128.468 264.197 128.938 267.36 127.627C267.865 127.426 268.403 127.661 268.639 128.132C268.841 128.636 268.605 129.174 268.134 129.409C266.822 129.98 264.87 130.249 262.716 130.249Z" fill="#1D2B4B"/>
<path d="M269.278 67.0891C269.144 67.0891 268.975 67.0555 268.841 66.9883C268.37 66.753 268.168 66.1815 268.403 65.6773C270.187 62.1143 273.014 60.1983 276.177 60.4C276.715 60.4336 277.119 60.9042 277.085 61.442C277.052 61.9798 276.614 62.3495 276.042 62.3495C272.812 62.1143 270.961 64.9042 270.153 66.5513C269.951 66.8874 269.615 67.0891 269.278 67.0891Z" fill="#1D2B4B"/>
<path d="M241.314 70.484C241.112 70.484 240.91 70.4168 240.708 70.2824C240.271 69.9462 240.203 69.3412 240.54 68.9378C247.472 59.9629 256.221 61.0722 261.606 64.7361C262.043 65.0386 262.144 65.6437 261.841 66.0806C261.538 66.5176 260.933 66.6185 260.495 66.3159C255.582 62.9546 248.179 62.1815 242.054 70.0807C241.886 70.3496 241.617 70.484 241.314 70.484Z" fill="#1D2B4B"/>
<path d="M229.334 84.6355C228.83 84.6355 228.426 84.2657 228.358 83.7279C228.325 83.1901 228.729 82.7195 229.233 82.6859C234.887 82.2489 245.79 78.8203 250.837 68.7026C251.073 68.232 251.645 68.0303 252.15 68.2656C252.621 68.5009 252.823 69.0723 252.587 69.5765C247.169 80.4338 235.459 84.1313 229.402 84.6019C229.402 84.6019 229.368 84.6355 229.334 84.6355Z" fill="#1D2B4B"/>
<path d="M230.748 92.501C230.647 92.501 230.546 92.501 230.412 92.501C229.873 92.4674 229.469 91.9968 229.503 91.4926C229.537 90.9547 229.974 90.5514 230.512 90.585C233.205 90.7195 235.022 87.8287 235.863 86.0807C236.099 85.6101 236.671 85.4085 237.142 85.6438C237.613 85.8791 237.815 86.4505 237.579 86.9211C235.829 90.5178 233.406 92.501 230.748 92.501Z" fill="#1D2B4B"/>
<path d="M294.281 70.9881C294.214 70.9881 294.113 70.9881 294.046 70.9545C293.541 70.82 293.204 70.2822 293.339 69.778C294.92 63.6267 293.204 57.1728 288.661 52.0972C283.984 46.9206 277.422 44.3996 271.096 45.3408C270.591 45.408 270.086 45.0719 269.985 44.5341C269.918 43.9962 270.254 43.5257 270.793 43.4248C277.758 42.3828 284.993 45.1391 290.075 50.7862C295.021 56.2653 296.94 63.5258 295.19 70.215C295.122 70.6856 294.719 70.9881 294.281 70.9881Z" fill="#1D2B4B"/>
<path d="M288.257 93.6774C287.987 93.6774 287.718 93.5766 287.55 93.3413C287.18 92.9379 287.247 92.3329 287.617 91.9631C291.05 88.9043 294.078 82.8874 293.001 76.2655C292.901 75.7277 293.271 75.2571 293.809 75.1562C294.348 75.0554 294.819 75.4252 294.92 75.963C296.097 83.2908 292.732 89.9799 288.896 93.4085C288.728 93.5766 288.492 93.6774 288.257 93.6774Z" fill="#1D2B4B"/>
<path d="M267.999 52.3326C267.528 52.3326 267.125 51.9965 267.057 51.5259C265.98 44.7695 260.899 42.0804 256.794 41.0048C247.068 38.4838 233.305 42.4502 227.955 49.341C227.618 49.7444 227.012 49.8452 226.609 49.5091C226.171 49.173 226.104 48.5679 226.44 48.1645C232.228 40.7695 246.934 36.4669 257.298 39.156C263.894 40.8703 268.033 45.1393 268.975 51.2234C269.043 51.7612 268.706 52.2318 268.168 52.3326C268.1 52.3326 268.067 52.3326 267.999 52.3326Z" fill="#1D2B4B"/>
<path d="M218.97 95.9633C218.532 95.9633 218.162 95.6944 218.027 95.2574C212.912 77.1732 213.821 62.3496 220.349 56.5344C220.753 56.1646 221.359 56.1983 221.729 56.6016C222.099 57.005 222.032 57.61 221.662 57.9798C215.672 63.2908 214.999 77.3413 219.912 94.7196C220.046 95.2238 219.744 95.7617 219.239 95.8961C219.138 95.9633 219.071 95.9633 218.97 95.9633Z" fill="#1D2B4B"/>
<path d="M314.27 191.46C313.799 191.46 313.395 191.124 313.328 190.653L312.857 187.695C311.208 177.577 309.357 166.082 305.891 160.334C302.055 154.014 295.998 150.922 289.604 147.661C284.657 145.14 279.576 142.552 275.504 138.35C275.134 137.98 275.134 137.342 275.538 136.972C275.908 136.602 276.547 136.602 276.917 137.006C280.754 140.972 285.7 143.493 290.479 145.947C296.839 149.207 303.434 152.535 307.54 159.359C311.208 165.409 313.092 177.107 314.775 187.393L315.246 190.351C315.347 190.888 314.977 191.359 314.438 191.46C314.405 191.46 314.337 191.46 314.27 191.46Z" fill="#1D2B4B"/>
<path d="M372.452 307.427L219.374 306.99C219.205 307.024 217.018 307.125 215.605 305.78C214.259 304.503 213.956 302.083 213.922 301.814L195.38 202.788C195.313 202.485 194.707 199.561 195.75 197.846C196.861 195.998 199.519 195.93 199.822 195.93L357.309 194.888C357.377 194.888 360.54 194.687 362.357 196.435C364.107 198.115 364.41 201.309 364.443 201.678L377.298 303.192C377.332 303.394 377.567 305.31 376.188 306.385C375.01 307.36 372.722 307.427 372.452 307.427ZM219.34 305.041L372.452 305.478C373.193 305.478 374.505 305.276 375.01 304.873C375.515 304.469 375.414 303.427 375.414 303.427L362.525 201.846C362.458 201.04 362.054 198.788 361.045 197.779C359.833 196.636 357.444 196.771 357.41 196.771L199.89 197.813C199.418 197.813 197.938 198.015 197.467 198.788C196.996 199.594 197.13 201.376 197.366 202.351L215.907 301.478C215.975 302.083 216.311 303.663 217.018 304.368C217.657 305.007 218.936 305.074 219.34 305.041Z" fill="#1D2B4B"/>
<path d="M375.448 290.688C374.909 290.688 374.472 290.251 374.472 289.713C374.472 289.175 374.909 288.738 375.448 288.738L405.801 288.537L405.935 289.511V290.486L375.448 290.688Z" fill="#1D2B4B"/>
<path d="M376.289 301.041C375.885 301.041 375.482 300.772 375.381 300.369C375.212 299.864 375.515 299.327 376.02 299.159L405.97 289.982C406.474 289.847 407.013 290.116 407.181 290.621C407.349 291.125 407.046 291.663 406.542 291.831L376.592 301.007C376.491 301.007 376.39 301.041 376.289 301.041Z" fill="#1D2B4B"/>
<path d="M381.236 305.142C380.832 305.142 380.428 304.873 380.327 304.47C380.159 303.965 380.462 303.427 380.966 303.259C381.135 303.192 399.575 297.579 406.979 294.654C407.45 294.453 408.022 294.688 408.224 295.192C408.426 295.696 408.19 296.234 407.685 296.436C400.215 299.394 381.707 305.041 381.538 305.108C381.404 305.142 381.303 305.142 381.236 305.142Z" fill="#1D2B4B"/>
<path d="M201 292.301C200.63 292.301 200.294 292.1 200.125 291.73C198.914 289.007 197.231 286.856 195.179 285.242C184.982 277.343 161.258 279.125 148.505 280.066L146.721 280.2C135.683 281.007 115.661 284.604 108.022 287.663C107.518 287.864 106.979 287.629 106.777 287.125C106.575 286.62 106.811 286.083 107.316 285.881C115.325 282.688 135.347 279.125 146.586 278.284L148.37 278.15C162.302 277.108 185.622 275.36 196.39 283.73C198.678 285.511 200.529 287.931 201.909 290.923C202.144 291.394 201.909 291.965 201.438 292.2C201.269 292.268 201.135 292.301 201 292.301Z" fill="#1D2B4B"/>
<path d="M194.068 412C195.078 396.706 196.524 379.899 198.207 365.176C198.274 364.638 197.871 364.168 197.366 364.1C196.827 364.033 196.356 364.436 196.289 364.941C194.606 379.731 193.126 396.571 192.116 411.966H194.068V412Z" fill="#1D2B4B"/>
<path d="M140.631 412H142.583C142.414 409.513 142.28 406.958 142.179 404.403C141.64 391.025 141.236 371.193 143.659 353.68C144.299 349.142 145.308 344.739 146.25 340.47C148.202 331.865 150.053 323.764 148.64 315.797C148.539 315.259 148.034 314.923 147.529 315.024C146.991 315.125 146.654 315.629 146.755 316.133C148.101 323.697 146.284 331.629 144.4 340.033C143.424 344.335 142.414 348.772 141.775 353.411C139.318 371.092 139.722 391.025 140.261 404.47C140.362 407.025 140.496 409.513 140.631 412Z" fill="#1D2B4B"/>
<path d="M73.4281 338.218C73.1252 338.218 72.856 338.083 72.6541 337.814C69.3563 333.344 66.7315 328.234 64.9143 322.587C64.7461 322.083 65.0153 321.545 65.5201 321.377C66.0248 321.209 66.5632 321.478 66.7315 321.982C68.4814 327.428 71.0052 332.369 74.1684 336.638C74.4713 337.075 74.404 337.68 73.9665 337.982C73.8319 338.15 73.63 338.218 73.4281 338.218Z" fill="#1D2B4B"/>
<path d="M121.819 359.495C121.281 359.495 120.81 359.058 120.81 358.52C120.81 357.983 121.247 357.546 121.785 357.546H121.819C125.925 357.546 134.876 356.033 141.505 351.966C141.976 351.697 142.548 351.831 142.851 352.268C143.12 352.739 142.986 353.31 142.548 353.613C135.549 357.915 126.126 359.495 121.819 359.495Z" fill="#1D2B4B"/>
<path d="M144.702 280.066C129.323 280.066 108.157 279.36 99.4075 266.856C95.3694 261.074 97.4558 252.402 100.047 241.444C100.922 237.746 101.83 233.948 102.604 229.88C103.681 224.166 104.489 219.225 105.296 214.418C106.743 205.813 108.09 197.645 110.714 185.846C114.349 169.443 119.867 144.67 135.28 129.644C144.063 121.073 155.941 119.762 168.527 118.417C174.45 117.779 180.608 117.106 186.833 115.661C188.415 115.291 190.333 114.686 192.352 114.081C198.073 112.3 205.139 110.081 212.071 110.619C212.61 110.652 213.014 111.123 212.946 111.661C212.913 112.199 212.442 112.602 211.903 112.535C205.341 112.031 198.443 114.182 192.89 115.93C190.838 116.568 188.886 117.174 187.203 117.577C180.877 119.022 174.685 119.695 168.695 120.367C155.941 121.745 144.904 122.955 136.592 131.056C121.584 145.678 116.166 170.149 112.565 186.317C109.94 198.082 108.594 206.183 107.181 214.788C106.373 219.595 105.566 224.536 104.489 230.284C103.715 234.385 102.806 238.217 101.931 241.914C99.4412 252.435 97.4558 260.704 100.989 265.78C109.705 278.284 133.395 278.217 147.562 278.183H149.985C150.524 278.183 150.961 278.62 150.961 279.158C150.961 279.696 150.524 280.133 149.985 280.133H147.562C146.654 280.066 145.678 280.066 144.702 280.066Z" fill="#1D2B4B"/>
<path d="M205.139 253.175C205.004 253.175 204.903 253.141 204.769 253.108C199.856 251.158 194.337 250.452 189.02 249.746C184.881 249.209 180.573 248.671 176.502 247.528C172.497 246.419 167.685 244.368 162.604 242.183C150.086 236.839 135.885 230.788 125.89 234.788C125.386 234.99 124.847 234.755 124.645 234.25C124.443 233.746 124.679 233.208 125.184 233.007C135.918 228.704 150.523 234.923 163.378 240.435C168.425 242.587 173.17 244.604 177.04 245.679C181.011 246.788 185.217 247.326 189.289 247.83C194.741 248.536 200.36 249.242 205.509 251.293C206.014 251.494 206.249 252.066 206.047 252.536C205.879 252.94 205.509 253.175 205.139 253.175Z" fill="#1D2B4B"/>
<path d="M155.772 233.948C155.604 233.948 155.436 233.914 155.301 233.813C154.83 233.545 154.662 232.973 154.931 232.503C157.152 228.57 157.354 225.309 157.657 220.402C157.926 216.099 158.229 210.754 160.013 202.855L160.282 201.746C164.286 184.031 171.689 151.023 158.397 128.838C158.128 128.367 158.263 127.796 158.734 127.527C159.205 127.258 159.777 127.392 160.046 127.863C173.742 150.687 166.204 184.166 162.166 202.183L161.897 203.292C160.147 211.057 159.844 216.301 159.609 220.536C159.306 225.544 159.104 229.175 156.647 233.477C156.446 233.78 156.109 233.948 155.772 233.948Z" fill="#1D2B4B"/>
<path d="M259.52 197.04C259.453 197.04 259.385 197.04 259.284 197.006C258.78 196.872 258.443 196.368 258.578 195.83C260.597 187.191 265.745 160.905 265.341 143.325C265.341 142.787 265.745 142.35 266.284 142.35C266.889 142.384 267.26 142.754 267.26 143.292C267.663 161.073 262.481 187.561 260.428 196.3C260.361 196.737 259.957 197.04 259.52 197.04Z" fill="#1D2B4B"/>
<path d="M227.853 196.973C227.348 196.973 226.945 196.603 226.877 196.099C225.329 180.704 223.041 134.249 223.041 118.451C223.041 117.913 223.478 117.476 224.017 117.476C224.555 117.476 224.993 117.913 224.993 118.451C224.993 134.216 227.281 180.569 228.829 195.931C228.896 196.468 228.493 196.939 227.954 196.973C227.92 196.973 227.887 196.973 227.853 196.973Z" fill="#1D2B4B"/>
<path d="M214.562 175.023C214.326 175.023 214.057 174.922 213.889 174.754C212.172 173.04 210.288 171.628 208.605 170.384C205.072 167.729 202.043 165.409 203.019 162.115C203.389 160.905 203.995 159.762 204.702 158.451C206.889 154.451 210.187 148.401 211.062 131.93C211.297 127.762 213.619 114.989 217.523 110.989C217.893 110.619 218.499 110.585 218.903 110.989C219.273 111.358 219.306 111.963 218.903 112.367C215.571 115.762 213.216 127.863 212.98 132.064C212.071 148.938 208.639 155.224 206.384 159.392C205.678 160.67 205.139 161.678 204.836 162.687C204.264 164.603 206.216 166.216 209.716 168.871C211.432 170.149 213.35 171.628 215.167 173.409C215.537 173.779 215.537 174.384 215.167 174.787C215.066 174.922 214.797 175.023 214.562 175.023Z" fill="#1D2B4B"/>
<path d="M208.437 197.477C208.067 197.477 207.697 197.241 207.562 196.905C207.26 196.199 206.486 194.888 205.577 193.342C202.313 187.796 199.89 183.393 200.866 181.275C201.64 179.594 203.457 179.157 205.543 178.586C207.461 178.082 209.851 177.477 212.206 175.729C216.749 172.367 218.97 169.913 221.326 167.359C222.335 166.25 223.378 165.14 224.624 163.863C224.994 163.493 225.599 163.493 226.003 163.863C226.373 164.233 226.373 164.838 226.003 165.241C224.758 166.485 223.749 167.594 222.773 168.67C220.35 171.325 218.062 173.813 213.35 177.275C210.692 179.224 208.101 179.897 206.014 180.468C204.096 180.972 202.986 181.275 202.616 182.082C201.976 183.426 205.543 189.443 207.226 192.334C208.202 193.981 208.976 195.292 209.312 196.099C209.514 196.603 209.279 197.141 208.808 197.376C208.707 197.443 208.572 197.477 208.437 197.477Z" fill="#1D2B4B"/>
<path d="M277.59 197.275C277.489 197.275 277.388 197.275 277.287 197.242C276.783 197.074 276.513 196.536 276.682 196.031C276.951 195.258 277.725 193.88 279.105 191.494C280.72 188.704 284.489 182.115 284.051 180.838C283.546 179.998 282.705 179.863 280.989 179.695C279.34 179.527 277.287 179.325 274.999 178.048C272.139 176.468 266.957 172.704 264.298 165.14C264.13 164.636 264.399 164.098 264.904 163.897C265.409 163.729 265.947 163.998 266.149 164.502C268.605 171.46 273.35 174.888 275.941 176.334C277.893 177.409 279.643 177.578 281.191 177.746C283.008 177.914 284.724 178.082 285.767 179.863C286.71 181.51 285.027 185.073 280.821 192.401C279.778 194.25 278.768 195.964 278.566 196.603C278.364 197.006 277.994 197.275 277.59 197.275Z" fill="#1D2B4B"/>
<path d="M273.149 175.897C272.913 175.897 272.644 175.796 272.476 175.628C272.105 175.258 272.105 174.653 272.476 174.25C273.586 173.14 275.504 172.367 277.389 171.628C279.239 170.888 281.561 169.947 281.898 169.006C282.302 167.863 281.292 166.485 280.114 164.905C279.408 163.964 278.667 162.989 278.095 161.88C276.11 158.048 272.543 146.014 271.096 141.039C270.961 140.535 271.23 139.997 271.769 139.829C272.274 139.695 272.812 139.964 272.98 140.501C274.091 144.367 277.893 157.208 279.845 161.006C280.35 161.981 281.023 162.888 281.662 163.762C283.042 165.611 284.489 167.527 283.715 169.678C283.076 171.46 280.653 172.435 278.095 173.443C276.413 174.115 274.663 174.821 273.822 175.628C273.653 175.83 273.418 175.897 273.149 175.897Z" fill="#1D2B4B"/>
<path d="M247.405 197.208C246.867 197.208 246.429 196.771 246.429 196.233C246.429 193.443 245.588 189.141 244.814 184.973C244.208 181.813 243.636 178.855 243.468 176.67C243.232 173.981 243.333 171.561 243.434 169.241C243.603 165.208 243.737 161.376 242.122 156.939C241.18 154.317 239.665 152.233 238.084 149.981C237.175 148.703 236.233 147.392 235.358 145.913C231.522 139.459 228.729 132.468 227.484 126.216C227.383 125.678 227.719 125.174 228.258 125.073C228.796 124.972 229.301 125.308 229.402 125.846C230.613 131.863 233.339 138.653 237.074 144.938C237.916 146.35 238.824 147.628 239.699 148.871C241.348 151.224 242.93 153.409 243.973 156.266C245.723 161.039 245.554 165.04 245.386 169.275C245.285 171.561 245.218 173.914 245.42 176.468C245.588 178.552 246.16 181.477 246.766 184.569C247.573 188.804 248.415 193.208 248.415 196.199C248.381 196.771 247.944 197.208 247.405 197.208Z" fill="#1D2B4B"/>
<path d="M245.352 181.645C245.049 181.645 244.779 181.51 244.578 181.275C244.241 180.838 244.342 180.233 244.746 179.931C249.793 176.031 251.341 168.603 252.385 163.695C252.654 162.485 252.856 161.409 253.125 160.535C253.63 158.687 254.808 157.208 256.053 155.661C258.105 153.107 260.427 150.182 261.201 144.233C261.269 143.695 261.773 143.359 262.278 143.392C262.817 143.46 263.187 143.93 263.119 144.468C262.278 150.956 259.687 154.216 257.567 156.872C256.423 158.317 255.413 159.561 255.009 161.04C254.774 161.88 254.572 162.922 254.303 164.065C253.192 169.275 251.543 177.107 245.957 181.443C245.755 181.578 245.553 181.645 245.352 181.645Z" fill="#1D2B4B"/>
<path d="M261.605 177.107C261.538 177.107 261.471 177.107 261.404 177.107C259.485 176.872 258.678 174.048 257.433 169.073C256.726 166.25 255.548 161.544 254.404 161.308C253.866 161.207 253.529 160.703 253.63 160.165C253.731 159.628 254.236 159.292 254.774 159.392C257.13 159.863 258.139 163.897 259.317 168.569C259.889 170.888 260.899 174.787 261.639 175.157C261.639 175.124 262.11 174.922 262.918 173.376C263.153 172.905 263.759 172.703 264.23 172.972C264.701 173.208 264.903 173.813 264.634 174.283C263.927 175.594 262.952 177.107 261.605 177.107Z" fill="#1D2B4B"/>
<path d="M229.2 173.678C227.888 173.678 226.676 172.905 225.566 171.393C225.263 170.956 225.33 170.351 225.768 170.048C226.205 169.745 226.811 169.813 227.114 170.25C227.888 171.292 228.628 171.796 229.301 171.762C231.286 171.628 233.676 167.325 235.594 163.863C237.68 160.065 239.497 156.771 241.685 156.401C242.223 156.3 243.031 156.367 243.838 157.107C244.242 157.476 244.276 158.082 243.906 158.485C243.535 158.888 242.93 158.922 242.526 158.552C242.223 158.283 242.055 158.317 241.987 158.317C240.742 158.518 238.824 162.014 237.276 164.804C234.921 169.073 232.464 173.51 229.436 173.712C229.335 173.678 229.267 173.678 229.2 173.678Z" fill="#1D2B4B"/>
<path d="M62.6609 334.588C62.5263 334.588 62.3917 334.554 62.2908 334.52C60.9111 333.915 59.4977 333.512 58.1517 333.109C54.551 332.033 51.1186 330.991 48.8303 327.159C47.1478 324.369 48.4602 318.52 49.3014 316.268C51.7243 309.848 53.2386 303.461 54.8875 296.705C55.325 294.89 55.7624 293.041 56.2336 291.192C56.4691 290.217 56.7047 289.243 56.9402 288.268C58.3199 282.486 59.7669 276.503 63.0311 271.293C66.3962 265.915 71.7467 260.94 76.929 256.167C80.8325 252.536 84.5341 249.141 87.3608 245.612C89.3126 243.192 89.3462 240.166 89.3799 236.973C89.4135 234.418 89.4472 231.797 90.4904 229.376C91.6345 226.721 93.0142 225.04 94.3939 223.427C95.7736 221.78 97.0523 220.233 98.1292 217.679C99.9463 213.309 101.393 208.67 102.807 204.233C104.119 200.099 105.465 195.83 107.114 191.729C109.2 186.485 113.777 173.107 113.811 172.972C113.979 172.468 114.517 172.199 115.022 172.367C115.527 172.535 115.796 173.073 115.628 173.577C115.594 173.712 111.018 187.124 108.898 192.401C107.282 196.435 105.936 200.67 104.657 204.771C103.244 209.275 101.764 213.948 99.9127 218.385C98.7349 221.208 97.2879 222.956 95.8746 224.637C94.5622 226.217 93.3171 227.696 92.2739 230.116C91.399 232.166 91.3653 234.519 91.3316 236.973C91.298 240.368 91.2307 243.864 88.8751 246.788C85.9475 250.419 82.2122 253.881 78.275 257.545C73.1937 262.251 67.9441 267.091 64.7136 272.268C61.6177 277.209 60.238 283.024 58.8583 288.671C58.6228 289.646 58.3872 290.621 58.1517 291.595C57.6806 293.444 57.2431 295.259 56.8056 297.075C55.1567 303.898 53.6088 310.318 51.1522 316.873C50.311 319.125 49.3687 324.167 50.5465 326.117C52.4646 329.31 55.3923 330.184 58.7574 331.193C60.1707 331.629 61.6177 332.066 63.0984 332.705C63.6032 332.907 63.8051 333.478 63.6032 333.982C63.4012 334.352 63.0311 334.588 62.6609 334.588Z" fill="#1D2B4B"/>
<path d="M63.3333 335.024C62.9631 335.024 62.6266 334.823 62.4583 334.487C61.0113 331.629 60.8094 328.739 61.819 325.915C64.6793 317.915 76.962 312.47 81.0001 310.688C87.4611 307.831 91.5665 302.722 95.9412 297.31C98.5996 293.982 101.393 290.587 104.724 287.696C109.738 283.427 116.165 281.343 123.905 281.478C124.444 281.478 124.847 281.915 124.847 282.453C124.847 282.99 124.41 283.394 123.872 283.394C123.872 283.394 123.872 283.394 123.838 283.394C116.569 283.226 110.579 285.175 105.969 289.142C102.739 291.898 100.047 295.259 97.4218 298.486C93.1145 303.831 88.6389 309.344 81.7741 312.402C77.9378 314.117 66.2273 319.293 63.6361 326.52C62.7949 328.873 62.9631 331.159 64.1746 333.579C64.4101 334.05 64.2082 334.621 63.7371 334.89C63.6025 334.991 63.4679 335.024 63.3333 335.024Z" fill="#1D2B4B"/>
<path d="M399.61 75.2236C399.542 75.2236 399.475 75.2236 399.441 75.1899C398.398 74.9883 397.422 74.316 396.783 73.3748C396.144 72.4336 395.942 71.2908 396.144 70.1815C396.278 69.4756 396.615 68.8033 396.985 68.0638C397.759 66.484 398.634 64.6688 398.028 61.61C397.927 61.0722 398.264 60.568 398.768 60.4671C399.307 60.3663 399.811 60.7024 399.912 61.2066C400.653 64.9041 399.542 67.1899 398.735 68.8706C398.432 69.5092 398.163 70.047 398.062 70.5176C397.893 71.2908 398.163 71.8958 398.398 72.2656C398.735 72.7698 399.273 73.1731 399.811 73.274C400.35 73.3748 400.686 73.879 400.585 74.4168C400.451 74.8874 400.047 75.2236 399.61 75.2236Z" fill="#1D2B4B"/>
<path d="M380.395 54.0132C380.092 54.0132 379.789 53.8788 379.587 53.6098C379.284 53.1729 379.385 52.5678 379.823 52.2653C382.548 50.3829 387.293 50.7527 390.086 52.1981C390.557 52.4334 390.759 53.0384 390.49 53.509C390.255 53.9796 389.649 54.1813 389.178 53.9124C386.923 52.7359 382.952 52.4334 380.9 53.8451C380.799 53.946 380.597 54.0132 380.395 54.0132Z" fill="#1D2B4B"/>
<path d="M416.536 54.4503C416.401 54.4503 416.233 54.4166 416.098 54.3494C413.103 52.8032 409.704 52.6687 407.382 54.0133C406.911 54.2822 406.339 54.1141 406.07 53.6771C405.801 53.2065 405.969 52.6351 406.407 52.3662C409.267 50.7191 413.406 50.82 416.973 52.6687C417.444 52.904 417.646 53.5091 417.377 53.9797C417.209 54.2486 416.872 54.4503 416.536 54.4503Z" fill="#1D2B4B"/>
<path d="M401.593 101.879C387.729 101.879 376.321 86.8204 374.437 65.9126C374.403 65.3748 374.773 64.9042 375.312 64.8706C375.85 64.8034 376.321 65.2068 376.355 65.7446C378.172 85.812 389.008 100.199 401.896 99.9634C413.438 99.7281 423.096 88.5347 425.452 78.2825C425.553 77.7783 426.091 77.4422 426.596 77.543C427.101 77.6775 427.437 78.1817 427.336 78.6859C424.779 89.8793 414.583 101.61 401.93 101.846C401.862 101.879 401.728 101.879 401.593 101.879Z" fill="#1D2B4B"/>
<path d="M421.954 278.957C406.71 278.957 391.432 275.965 380.226 273.78C379.688 273.679 379.351 273.175 379.452 272.637C379.553 272.099 380.058 271.763 380.597 271.864C391.903 274.049 407.416 277.141 422.66 276.973C423.199 276.973 423.636 277.41 423.636 277.948C423.636 278.486 423.199 278.923 422.66 278.923C422.425 278.957 422.189 278.957 421.954 278.957Z" fill="#1D2B4B"/>
<path d="M423.77 279.864C422.558 279.864 421.482 279.629 420.674 279.024C420.236 278.688 420.169 278.083 420.472 277.679C420.808 277.242 421.414 277.175 421.818 277.478C423.029 278.385 426.193 277.713 428.952 277.142C430.433 276.839 431.981 276.503 433.394 276.368C445.105 275.158 459.036 272.94 462.872 266.452C466.305 260.704 471.487 244.368 473.775 235.292C474.482 232.502 475.155 229.746 475.862 227.057C480.539 208.603 484.981 191.157 486.63 171.225L486.798 169.107C486.967 167.157 487.169 164.872 487.337 162.35C488.75 141.375 486.428 127.695 480.203 120.569C476.097 115.896 467.954 114.115 459.339 112.199L457.253 111.728C456.748 111.627 456.411 111.089 456.512 110.585C456.613 110.081 457.152 109.745 457.657 109.846L459.743 110.316C468.694 112.266 477.141 114.148 481.65 119.291C488.245 126.821 490.736 140.972 489.255 162.485C489.087 165.006 488.885 167.325 488.717 169.275L488.548 171.393C486.899 191.494 482.457 209.006 477.746 227.528C477.073 230.217 476.367 232.973 475.66 235.763C473.372 244.94 468.088 261.511 464.555 267.427C460.281 274.587 446.518 276.94 433.596 278.251C432.284 278.385 430.769 278.688 429.322 278.99C427.37 279.461 425.419 279.864 423.77 279.864Z" fill="#1D2B4B"/>
<path d="M331.734 195.964C331.263 195.964 330.826 195.595 330.759 195.09C325.24 144.367 332.374 125.846 335.705 120.233C340.416 112.3 347.921 110.249 357.276 108.434C358.285 108.232 359.53 108.064 360.944 107.863C368.179 106.821 380.293 105.039 387.427 96.602C387.764 96.1987 388.369 96.1315 388.773 96.5012C389.177 96.8373 389.244 97.4424 388.874 97.8458C381.269 106.854 368.717 108.669 361.213 109.779C359.833 109.98 358.622 110.148 357.646 110.35C347.281 112.367 341.325 114.619 337.388 121.241C334.157 126.686 327.259 144.737 332.71 194.889C332.778 195.427 332.374 195.897 331.869 195.964C331.835 195.964 331.768 195.964 331.734 195.964Z" fill="#1D2B4B"/>
<path d="M387.763 102.182C387.494 102.182 387.224 102.081 387.022 101.846C386.686 101.442 386.72 100.837 387.123 100.501C387.628 100.098 388.469 98.5515 388.873 97.5767C389.109 97.0725 389.681 96.8708 390.152 97.1061C390.623 97.3414 390.859 97.9129 390.623 98.3834C390.421 98.8204 389.344 101.14 388.335 101.98C388.2 102.115 387.965 102.182 387.763 102.182Z" fill="#1D2B4B"/>
<path d="M352.363 196.099C351.96 196.099 351.589 195.863 351.455 195.46C347.484 184.132 347.248 175.998 347.013 168.838C346.912 165.779 346.811 162.888 346.474 159.997L346.172 157.544C345.095 148.77 344.388 142.955 340.047 133.005C339.845 132.501 340.047 131.963 340.552 131.728C341.057 131.526 341.629 131.728 341.831 132.232C346.306 142.451 347.047 148.67 348.123 157.308L348.426 159.728C348.796 162.72 348.897 165.644 348.998 168.771C349.234 175.796 349.469 183.796 353.339 194.821C353.507 195.325 353.238 195.863 352.734 196.065C352.565 196.099 352.464 196.099 352.363 196.099Z" fill="#1D2B4B"/>
<path d="M439.149 240.099C439.115 240.099 439.115 240.099 439.081 240.099C438.543 240.066 438.139 239.595 438.173 239.091C438.577 232.334 439.822 224.099 441.908 213.948C444.196 202.855 445.341 193.242 446.653 182.115L447.158 177.981C447.36 176.267 447.528 174.384 447.696 172.401C448.672 161.174 450.018 145.779 461.628 134.787C461.998 134.417 462.637 134.451 463.007 134.821C463.378 135.224 463.344 135.829 462.974 136.199C451.903 146.686 450.657 161.04 449.648 172.603C449.48 174.62 449.311 176.502 449.109 178.25L448.605 182.384C447.292 193.578 446.115 203.225 443.826 214.385C441.74 224.435 440.528 232.57 440.125 239.259C440.091 239.696 439.687 240.099 439.149 240.099Z" fill="#1D2B4B"/>
<path d="M370.871 256.301C370.4 256.301 369.996 255.965 369.928 255.494C369.861 254.956 370.198 254.486 370.736 254.385C376.019 253.544 381.134 253.544 386.619 253.544C394.023 253.544 401.762 253.545 409.973 251.225C410.478 251.057 411.016 251.36 411.185 251.897C411.319 252.402 411.016 252.939 410.512 253.074C402.032 255.494 394.225 255.494 386.619 255.461C381.303 255.461 376.188 255.461 371.039 256.267C370.972 256.301 370.904 256.301 370.871 256.301Z" fill="#1D2B4B"/>
<path d="M407.752 253.545C407.483 253.545 407.214 253.444 407.012 253.209C406.675 252.805 406.709 252.2 407.113 251.83C409.502 249.713 414.28 248.872 419.799 247.898C420.741 247.73 421.717 247.561 422.693 247.36C425.553 246.822 428.447 246.15 431.005 245.545C433.394 245.007 435.447 244.503 436.894 244.267C437.399 244.2 437.903 244.536 438.004 245.074C438.072 245.612 437.735 246.082 437.197 246.183C435.817 246.385 433.798 246.856 431.442 247.427C428.885 248.032 425.957 248.704 423.063 249.242C422.087 249.41 421.111 249.612 420.136 249.78C415.122 250.654 410.377 251.494 408.391 253.276C408.223 253.444 407.988 253.545 407.752 253.545Z" fill="#1D2B4B"/>
<path d="M375.716 71.358C375.649 71.358 375.582 71.358 375.514 71.3244C373.563 70.921 370.5 66.8538 369.289 63.089C368.313 60.0302 368.65 57.5427 370.231 55.862C370.601 55.4587 371.207 55.4587 371.611 55.8284C372.015 56.1982 372.015 56.8032 371.645 57.2066C370.298 58.6184 370.601 60.8705 371.14 62.5176C372.318 66.2151 375.077 69.2739 375.885 69.442C376.423 69.5429 376.76 70.0471 376.659 70.5849C376.591 71.0555 376.187 71.358 375.716 71.358Z" fill="#1D2B4B"/>
<path d="M400.012 91.5263C399.945 91.5263 399.878 91.5263 399.811 91.5263C396.075 91.4254 393.249 89.1397 391.97 87.2237C391.095 85.8791 390.792 84.5346 391.196 83.5598C391.465 82.9211 392.239 82.0808 396.042 81.6438C398.094 81.4085 406.642 80.8707 408.156 82.9883C408.829 83.9295 408.795 85.2069 408.021 86.6523C406.776 89.0388 403.546 91.5263 400.012 91.5263ZM400.618 83.3245C397.253 83.3245 393.652 83.6942 392.946 84.4001C392.912 84.5346 392.979 85.2069 393.619 86.148C394.628 87.6943 396.883 89.5094 399.878 89.5767C402.637 89.6775 405.329 87.6607 406.339 85.7111C406.709 85.0388 406.81 84.4001 406.608 84.0976C406.002 83.5934 403.411 83.3245 400.618 83.3245Z" fill="#1D2B4B"/>
<path d="M487.708 80.2654C487.304 80.2654 486.934 80.0301 486.799 79.6268C485.89 77.173 481.617 64.5342 486.53 58.3829C486.866 57.9795 487.472 57.9123 487.876 58.2484C488.28 58.5846 488.347 59.1896 488.01 59.593C484.679 63.7275 486.227 72.6351 488.582 78.9881C488.751 79.4923 488.515 80.0301 488.01 80.2318C487.909 80.2318 487.809 80.2654 487.708 80.2654Z" fill="#1D2B4B"/>
<path d="M499.519 106.115C499.452 106.115 499.384 106.115 499.317 106.081C496.962 105.61 494.37 103.862 494.875 100.535C495.043 99.459 495.515 98.5178 495.952 97.6103C496.827 95.8624 497.635 94.2489 496.49 91.4254C496.289 90.9212 496.524 90.3833 497.029 90.1816C497.534 89.98 498.072 90.2153 498.274 90.7195C499.755 94.3497 498.61 96.6355 497.668 98.4842C497.264 99.291 496.894 100.03 496.76 100.804C496.389 103.325 498.913 104.03 499.687 104.199C500.226 104.299 500.562 104.804 500.428 105.341C500.394 105.812 499.99 106.115 499.519 106.115Z" fill="#1D2B4B"/>
<path d="M514.325 127.963C508.134 127.963 505.004 123.459 503.624 120.535C503.389 120.064 503.591 119.493 504.095 119.258C504.567 119.022 505.172 119.224 505.374 119.728C507.023 123.258 510.388 127.157 516.95 125.779C525.161 124.064 533.776 117.274 540.001 107.594C540.304 107.157 540.876 107.022 541.347 107.291C541.785 107.594 541.919 108.165 541.65 108.636C535.155 118.72 526.103 125.812 517.388 127.661C516.277 127.863 515.268 127.963 514.325 127.963Z" fill="#1D2B4B"/>
<path d="M548.751 96.9044C548.28 96.9044 547.876 96.5683 547.808 96.0977C547.708 95.5599 548.078 95.0557 548.582 94.9884C551.577 94.4506 553.63 92.2657 554.842 90.5178C557.298 86.8875 558.442 81.711 557.635 77.9126C557.063 75.2908 555.212 73.4084 552.923 73.2067C550.702 73.005 548.717 74.3496 547.64 76.837C547.438 77.3412 546.866 77.5429 546.361 77.3412C545.857 77.1395 545.655 76.5681 545.857 76.0639C547.27 72.8033 550.029 70.9882 553.092 71.2907C556.255 71.5932 558.779 74.047 559.519 77.5093C560.428 81.7782 559.183 87.5598 556.457 91.5934C554.438 94.5515 551.847 96.4002 548.953 96.9044C548.885 96.9044 548.818 96.9044 548.751 96.9044Z" fill="#1D2B4B"/>
<path d="M549.356 87.4926C549.188 87.4926 549.053 87.459 548.919 87.3918C548.448 87.1565 548.279 86.5514 548.515 86.0808C548.616 85.8791 548.717 85.6774 548.818 85.4422C549.323 84.4001 550.029 82.9884 551.51 81.4421C551.88 81.0388 552.486 81.0387 552.89 81.4085C553.293 81.7782 553.293 82.3833 552.923 82.7867C551.644 84.1312 551.072 85.3413 550.568 86.3161C550.467 86.5514 550.332 86.7867 550.231 86.9884C550.029 87.2909 549.693 87.4926 549.356 87.4926Z" fill="#1D2B4B"/>
<path d="M530.579 79.5933C522.435 79.5933 514.19 70.215 509.681 65.0721C508.705 63.9628 507.931 63.0889 507.393 62.5511C502.244 57.5762 498.206 56.1308 495.11 58.114C494.673 58.383 494.067 58.2821 493.764 57.8115C493.461 57.3745 493.596 56.7695 494.067 56.467C498.038 53.9123 502.85 55.4586 508.739 61.1393C509.345 61.7107 510.119 62.6183 511.128 63.7612C515.57 68.8368 523.882 78.2823 531.353 77.61C531.857 77.5764 532.362 77.9462 532.396 78.484C532.429 79.0218 532.059 79.4924 531.521 79.526C531.218 79.5597 530.881 79.5933 530.579 79.5933Z" fill="#1D2B4B"/>
<path d="M481.751 77.7781C481.616 77.7781 481.482 77.7445 481.314 77.6773C476.064 75.1227 473.641 70.8873 474.314 65.4419C475.492 56.1309 486.159 44.803 492.957 43.4249C493.462 43.324 494 43.6602 494.101 44.1644C494.202 44.7022 493.865 45.2064 493.361 45.3072C487.741 46.4501 477.376 56.7359 476.266 65.6772C475.694 70.3159 477.679 73.7781 482.189 75.9294C482.66 76.1647 482.862 76.7361 482.626 77.2067C482.458 77.6101 482.121 77.7781 481.751 77.7781Z" fill="#1D2B4B"/>
<path d="M563.658 53.1395C563.221 53.1395 562.817 52.8369 562.716 52.4C558.207 33.4082 544.41 27.6602 536.569 25.9459C524.118 23.2232 508.168 30.2485 500.529 38.3494C500.159 38.7528 499.553 38.7528 499.149 38.383C498.745 38.0133 498.745 37.4082 499.115 37.0049C507.124 28.5342 523.849 21.1728 536.973 24.0636C543.636 25.5426 559.654 31.1897 564.567 51.963C564.701 52.4672 564.365 53.005 563.86 53.1395C563.793 53.1059 563.726 53.1395 563.658 53.1395Z" fill="#1D2B4B"/>
<path fill-rule="evenodd" clip-rule="evenodd" d="M507.933 89.7446C507.26 88.4673 507.495 87.0219 508.437 86.4841C509.38 85.9463 510.692 86.5513 511.331 87.795C512.005 89.0723 511.769 90.5177 510.827 91.0555C509.884 91.5933 508.606 90.9883 507.933 89.7446Z" fill="#1D2B4B"/>
<path d="M504.667 82.2152C504.331 82.2152 503.994 82.0471 503.826 81.7445C503.557 81.2739 503.725 80.7025 504.196 80.4336C506.383 79.1899 510.623 78.4168 514.83 79.5933C515.334 79.7277 515.637 80.2655 515.503 80.8034C515.368 81.3076 514.83 81.6101 514.291 81.4756C510.792 80.4672 507.023 81.0387 505.138 82.1143C505.004 82.1815 504.835 82.2152 504.667 82.2152Z" fill="#1D2B4B"/>
<path d="M492.756 83.896C492.655 83.896 492.554 83.896 492.453 83.8624C490.164 83.0892 488.65 83.2909 487.977 83.7615C487.54 84.064 486.934 83.9296 486.631 83.4926C486.328 83.0556 486.463 82.4506 486.9 82.148C488.28 81.2404 490.535 81.2068 493.058 82.0472C493.563 82.2153 493.832 82.7531 493.664 83.2573C493.53 83.6607 493.159 83.896 492.756 83.896Z" fill="#1D2B4B"/>
<path d="M506.686 114.384C505.037 114.384 503.422 114.115 502.009 113.543C501.504 113.342 501.268 112.77 501.504 112.266C501.706 111.762 502.278 111.527 502.783 111.762C505.946 113.073 510.556 112.367 512.979 110.989C513.45 110.72 514.022 110.888 514.291 111.358C514.561 111.829 514.392 112.4 513.921 112.669C512.104 113.678 509.378 114.384 506.686 114.384Z" fill="#1D2B4B"/>
<path d="M549.088 135.661C548.819 135.661 548.55 135.56 548.348 135.325C542.896 129.107 532.7 122.014 529.234 122.014C528.695 122.014 528.258 121.577 528.258 121.039C528.258 120.501 528.695 120.064 529.234 120.064C533.642 120.064 544.377 127.863 549.795 134.014C550.131 134.418 550.097 135.023 549.694 135.392C549.559 135.56 549.323 135.661 549.088 135.661Z" fill="#1D2B4B"/>
<path d="M579.474 104.299C579.407 104.299 579.339 104.299 579.272 104.266C570.927 102.585 562.11 94.3833 558.779 89.3749C558.476 88.9379 558.61 88.3329 559.048 88.0303C559.485 87.7278 560.091 87.8623 560.394 88.2993C563.557 93.0388 571.869 100.804 579.676 102.383C580.214 102.484 580.551 102.988 580.416 103.526C580.315 103.997 579.911 104.299 579.474 104.299Z" fill="#1D2B4B"/>
<path d="M593.237 227.83C592.834 227.83 592.497 227.595 592.329 227.191C589.401 219.494 576.109 175.729 573.619 166.989C568.84 150.249 564.331 129.543 571.802 117.879C574.797 113.207 579.508 110.35 585.834 109.342C586.339 109.274 586.844 109.61 586.945 110.148C587.012 110.686 586.676 111.157 586.137 111.258C580.315 112.165 576.143 114.686 573.451 118.921C566.418 129.913 570.859 150.115 575.503 166.451C577.926 174.956 591.319 219.057 594.18 226.519C594.382 227.023 594.112 227.561 593.608 227.763C593.473 227.83 593.372 227.83 593.237 227.83Z" fill="#1D2B4B"/>
<path d="M559.384 280.469C558.947 280.469 558.543 280.167 558.442 279.696C558.341 279.192 558.644 278.654 559.182 278.553C580.315 273.948 598.588 266.957 603.703 264.503C623.624 254.822 628.201 249.477 626.922 237.343L626.215 230.418C624.432 213.074 622.245 191.494 619.889 180.435C617.231 168.065 614.505 155.224 617.702 148.905C617.937 148.434 618.543 148.233 619.014 148.468C619.485 148.703 619.687 149.275 619.452 149.779C616.591 155.527 619.25 167.998 621.807 180.031C624.196 191.191 626.384 212.838 628.167 230.217L628.874 237.141C630.22 250.217 625.24 256.2 604.578 266.251C599.396 268.772 580.921 275.831 559.62 280.469C559.519 280.469 559.452 280.469 559.384 280.469Z" fill="#1D2B4B"/>
<path d="M512.912 270.352C510.085 270.352 506.888 270.049 503.153 269.377C502.615 269.276 502.278 268.772 502.379 268.268C502.48 267.73 502.985 267.394 503.49 267.494C516.243 269.814 521.897 267.629 531.218 264.032C532.531 263.528 533.91 262.99 535.391 262.452C549.121 257.377 564.432 248.57 575.604 242.183C583.916 237.41 589.906 233.981 592.631 233.444C593.136 233.343 593.675 233.679 593.776 234.183C593.877 234.721 593.54 235.225 593.035 235.326C590.612 235.797 584.421 239.36 576.58 243.864C565.34 250.318 549.928 259.125 536.064 264.267C534.583 264.805 533.237 265.343 531.925 265.847C525.228 268.402 520.147 270.352 512.912 270.352Z" fill="#1D2B4B"/>
<path d="M716.467 345.142C716.366 345.142 716.232 345.109 716.131 345.075C715.626 344.873 715.39 344.335 715.559 343.831C725.418 317.982 713.304 297.007 703.545 280.133C702.569 278.452 701.627 276.839 700.752 275.259C694.897 264.839 687.763 254.721 680.864 244.939C676.557 238.822 672.082 232.502 668.01 226.183C661.885 216.738 657.679 205.947 653.641 195.494C650.915 188.468 648.088 181.208 644.723 174.451C642.334 169.678 640.45 164.838 638.464 159.661C631.095 140.602 623.489 120.905 589.603 107.291C589.098 107.089 588.862 106.518 589.064 106.047C589.266 105.543 589.838 105.308 590.309 105.51C625.004 119.426 632.777 139.527 640.281 158.955C642.267 164.065 644.118 168.871 646.473 173.577C649.872 180.401 652.732 187.695 655.458 194.754C659.496 205.107 663.635 215.83 669.659 225.107C673.73 231.393 678.172 237.713 682.48 243.83C689.412 253.645 696.58 263.83 702.468 274.318C703.377 275.898 704.286 277.511 705.262 279.192C715.222 296.402 727.572 317.848 717.41 344.537C717.241 344.907 716.871 345.142 716.467 345.142Z" fill="#1D2B4B"/>
<path d="M576.175 242.418C575.839 242.418 575.502 242.25 575.334 241.914C571.935 235.797 566.282 231.494 561.268 227.729C556.893 224.401 552.754 221.275 550.567 217.343C546.697 210.317 547.976 201.477 549.019 194.384L549.255 192.67C549.995 187.46 551.139 179.628 551.745 170.519C552.149 164.535 551.98 159.258 551.812 153.678C551.711 150.317 551.61 146.854 551.61 142.955C551.61 142.417 552.048 141.98 552.586 141.98C553.124 141.98 553.562 142.417 553.562 142.955C553.562 146.787 553.663 150.249 553.764 153.611C553.932 159.258 554.1 164.569 553.697 170.619C553.091 179.796 551.947 187.695 551.206 192.939L550.971 194.653C549.995 201.477 548.75 209.948 552.317 216.401C554.269 219.998 558.273 222.99 562.479 226.183C567.628 230.082 573.45 234.486 577.05 240.973C577.32 241.444 577.151 242.015 576.68 242.284C576.478 242.385 576.31 242.418 576.175 242.418Z" fill="#1D2B4B"/>
<path d="M657.377 289.175C657.242 289.175 657.108 289.142 657.007 289.108C639.811 281.679 583.984 280.671 564.533 284.604C564.028 284.705 563.49 284.369 563.389 283.864C563.288 283.327 563.625 282.822 564.129 282.721C583.883 278.755 639.71 279.562 657.747 287.36C658.252 287.562 658.454 288.133 658.252 288.638C658.083 288.974 657.747 289.175 657.377 289.175Z" fill="#1D2B4B"/>
<path d="M487.977 266.284C487.573 266.284 487.203 266.049 487.069 265.645C485.319 260.906 483.804 257.309 482.458 254.149C480.675 249.914 479.262 246.586 478.252 242.654C477.276 238.754 475.223 228.737 477.646 219.897C477.781 219.393 478.319 219.09 478.824 219.225C479.329 219.359 479.632 219.897 479.497 220.401C477.175 228.771 479.161 238.418 480.103 242.149C481.079 245.948 482.458 249.208 484.208 253.343C485.554 256.536 487.102 260.133 488.852 264.939C489.02 265.444 488.785 265.982 488.28 266.183C488.213 266.25 488.078 266.284 487.977 266.284Z" fill="#1D2B4B"/>
<path d="M513.586 290.015C512.139 290.015 510.893 289.915 510.052 289.847C504.264 289.377 499.62 287.394 495.919 285.847C493.563 284.873 491.544 283.999 489.962 283.831C487.809 283.629 484.814 284.772 481.92 285.881C477.814 287.461 473.608 289.074 470.882 287.125C469.974 286.486 469.839 285.679 469.873 285.141C470.007 283.461 472.06 281.646 476.536 279.259L476.805 279.091C477.949 278.452 478.858 277.881 479.665 277.41C483.67 274.99 484.545 274.62 492.486 275.427C493.025 275.494 493.395 275.965 493.361 276.503C493.294 277.041 492.823 277.41 492.284 277.377C484.78 276.604 484.208 276.94 480.675 279.091C479.867 279.562 478.925 280.133 477.781 280.805L477.478 280.973C472.195 283.763 471.858 285.074 471.824 285.276C471.824 285.31 471.824 285.377 472.026 285.545C473.877 286.889 477.612 285.444 481.213 284.066C484.309 282.856 487.54 281.612 490.131 281.881C491.982 282.083 494.135 282.99 496.625 284.032C500.226 285.545 504.668 287.427 510.052 287.898C512.61 288.099 518.364 288.604 523.95 285.746C524.421 285.511 524.993 285.679 525.262 286.183C525.498 286.654 525.33 287.225 524.825 287.494C520.787 289.545 516.648 290.015 513.586 290.015Z" fill="#1D2B4B"/>
<path d="M467.281 287.663C466.036 287.663 464.791 287.259 464.118 285.612C463.007 282.789 469.267 278.083 470.141 277.646C471.387 277.041 472.531 276.133 473.708 275.225C477.107 272.57 481.011 269.545 489.222 270.553C489.76 270.62 490.13 271.091 490.063 271.629C489.996 272.167 489.491 272.57 488.986 272.469C481.549 271.595 478.184 274.217 474.886 276.772C473.608 277.78 472.396 278.721 470.983 279.427C469.468 280.167 465.599 284.032 465.901 284.973C466.305 285.948 467.012 285.982 468.964 285.579C469.569 285.444 470.141 285.343 470.646 285.343C471.185 285.343 471.622 285.78 471.622 286.318C471.622 286.856 471.185 287.293 470.646 287.293C470.31 287.293 469.839 287.394 469.334 287.495C468.762 287.528 468.021 287.663 467.281 287.663Z" fill="#1D2B4B"/>
<path d="M463.142 285.377C462.099 285.377 460.921 285.142 460.181 284.436C459.609 283.864 459.407 283.091 459.642 282.217C460.114 280.268 463.209 277.276 466.036 275.192C466.507 274.822 467.079 274.284 467.719 273.646C470.68 270.721 475.627 265.78 486.395 266.721C486.933 266.755 487.337 267.226 487.27 267.763C487.236 268.301 486.765 268.705 486.227 268.637C476.367 267.797 471.959 272.133 469.065 275.024C468.358 275.73 467.752 276.301 467.18 276.772C464.017 279.125 461.762 281.679 461.527 282.721C461.46 282.99 461.527 283.058 461.56 283.091C461.964 283.495 463.344 283.562 464.152 283.36C464.656 283.226 465.195 283.562 465.329 284.066C465.464 284.57 465.161 285.108 464.623 285.243C464.253 285.31 463.714 285.377 463.142 285.377Z" fill="#1D2B4B"/>
<path d="M462.268 279.36C461.965 279.36 461.696 279.226 461.494 278.99C460.854 278.184 460.619 277.276 460.787 276.335C461.224 273.78 464.522 271.562 466.945 269.948C467.416 269.646 467.82 269.343 468.19 269.108C469.57 268.099 473.204 265.679 476.872 264.368C480.91 262.923 486.395 264.267 491.712 265.545C493.631 266.015 495.616 266.486 497.467 266.822C498.005 266.923 498.342 267.427 498.241 267.931C498.14 268.469 497.635 268.805 497.13 268.704C495.212 268.368 493.193 267.864 491.275 267.393C486.227 266.183 481.045 264.94 477.545 266.15C474.113 267.36 470.68 269.713 469.334 270.654C468.964 270.923 468.527 271.225 468.056 271.528C466.037 272.872 463.008 274.889 462.705 276.604C462.638 277.007 462.739 277.377 463.042 277.78C463.378 278.217 463.277 278.822 462.873 279.125C462.671 279.293 462.469 279.36 462.268 279.36Z" fill="#1D2B4B"/>
<path d="M594.516 281.511C594.078 281.511 593.708 281.243 593.573 280.806C592.328 276.234 592.833 270.15 592.867 269.881C592.9 269.343 593.405 268.973 593.91 269.007C594.448 269.041 594.818 269.511 594.785 270.049C594.785 270.116 594.28 276.066 595.458 280.268C595.592 280.772 595.29 281.31 594.785 281.444C594.684 281.511 594.583 281.511 594.516 281.511Z" fill="#1D2B4B"/>
<path d="M376.557 277.074C376.019 277.074 375.615 276.671 375.581 276.133C375.581 275.595 375.985 275.158 376.523 275.158L393.181 274.755C393.214 274.755 393.282 274.755 393.315 274.755L394.964 274.721C395.502 274.755 395.94 275.125 395.94 275.662C395.94 276.2 395.536 276.637 394.998 276.637L376.557 277.074Z" fill="#1D2B4B"/>
<path d="M402.537 323.529C297.108 323.529 188.045 314.386 188.045 299.091C188.045 294.822 195.852 291.058 211.904 287.595C212.442 287.495 212.947 287.831 213.048 288.335C213.149 288.873 212.812 289.377 212.307 289.478C192.15 293.814 189.997 297.646 189.997 299.091C189.997 309.949 275.403 321.579 402.571 321.579C529.738 321.579 615.145 309.949 615.145 299.091C615.145 297.108 611.073 290.217 558.476 284.032C557.938 283.965 557.568 283.494 557.635 282.957C557.702 282.419 558.173 282.049 558.712 282.116C597.444 286.654 617.063 292.368 617.063 299.091C617.029 314.419 507.966 323.529 402.537 323.529Z" fill="#1D2B4B"/>
<path d="M461.426 277.511C456.681 277.377 452.744 277.276 448.369 277.209L443.052 277.108C442.514 277.108 442.077 276.671 442.11 276.133C442.11 275.595 442.581 275.158 443.086 275.192L448.403 275.293C452.778 275.36 456.748 275.461 461.46 275.595C461.998 275.629 462.402 276.066 462.402 276.604C462.368 277.108 461.964 277.511 461.426 277.511Z" fill="#1D2B4B"/>
<path d="M180.27 279.629C180.169 279.629 180.035 279.595 179.934 279.562C179.429 279.36 179.193 278.822 179.361 278.318C183.063 268.436 198.475 253.208 205.34 254.351C205.879 254.452 206.215 254.923 206.148 255.461C206.047 255.998 205.576 256.335 205.037 256.267C199.519 255.393 184.779 269.377 181.179 279.024C181.044 279.36 180.674 279.629 180.27 279.629Z" fill="#1D2B4B"/>
<path d="M373.697 279.427C373.461 279.427 373.192 279.327 373.024 279.158C372.654 278.789 372.654 278.184 373.024 277.78C373.36 277.444 373.73 277.074 374.067 276.705C376.826 273.847 380.562 269.915 386.854 269.545C387.393 269.478 387.83 269.915 387.864 270.452C387.897 270.99 387.494 271.427 386.955 271.461C381.436 271.797 378.139 275.259 375.447 278.049C375.076 278.453 374.706 278.822 374.37 279.158C374.201 279.327 373.932 279.427 373.697 279.427Z" fill="#1D2B4B"/>
<path d="M422.659 279.192C422.592 279.192 422.491 279.192 422.423 279.158C421.919 279.024 421.582 278.486 421.717 277.982C424.846 265.948 414.987 255.393 409.03 252.402C408.559 252.166 408.357 251.595 408.593 251.091C408.828 250.62 409.4 250.418 409.905 250.654C416.366 253.881 427 265.343 423.601 278.452C423.5 278.923 423.096 279.192 422.659 279.192Z" fill="#1D2B4B"/>
<path d="M397.388 254.755C397.287 254.755 397.22 254.755 397.119 254.721C396.614 254.587 396.311 254.049 396.446 253.511C398.868 245.175 397.926 234.25 397.051 223.662C396.614 218.586 396.21 213.813 396.21 209.477C396.075 184.67 398.667 167.998 404.118 158.519C408.526 150.855 408.93 145.712 409.3 141.207C409.57 137.678 409.839 134.35 411.824 130.384C414.281 125.476 417.175 121.913 420.203 118.115C421.785 116.165 423.4 114.148 425.015 111.896C426.429 109.947 428.01 107.56 429.188 104.737C429.39 104.232 429.962 103.997 430.467 104.232C430.972 104.434 431.207 105.005 430.972 105.51C429.727 108.501 428.044 111.022 426.563 113.073C424.914 115.392 423.266 117.409 421.684 119.392C418.689 123.09 415.862 126.585 413.507 131.291C411.69 134.922 411.454 137.913 411.185 141.376C410.815 146.115 410.377 151.46 405.733 159.493C400.45 168.67 397.926 185.006 398.061 209.477C398.095 213.746 398.498 218.486 398.902 223.528C399.811 234.284 400.753 245.377 398.229 254.049C398.195 254.486 397.792 254.755 397.388 254.755Z" fill="#1D2B4B"/>
<path d="M400.988 166.619C400.652 166.619 400.315 166.451 400.147 166.149C400.013 165.88 396.58 159.897 395.436 154.081C394.797 150.821 394.898 147.426 394.999 144.098C395.133 139.93 395.234 135.997 394.023 132.333C393.316 130.216 392.306 127.896 391.23 125.442C387.629 117.308 383.153 107.157 388.033 97.4086C388.268 96.938 388.84 96.7363 389.345 96.9716C389.816 97.2069 390.018 97.7784 389.783 98.2826C385.307 107.19 389.412 116.468 393.013 124.669C394.124 127.157 395.133 129.51 395.873 131.728C397.186 135.728 397.085 139.997 396.95 144.165C396.849 147.359 396.748 150.686 397.354 153.712C398.431 159.191 401.796 165.107 401.83 165.174C402.099 165.645 401.931 166.216 401.46 166.485C401.325 166.552 401.157 166.619 400.988 166.619Z" fill="#1D2B4B"/>
<path d="M553.663 164.737C553.327 164.737 553.024 164.569 552.855 164.3C552.586 163.863 552.721 163.258 553.158 162.955C555.11 161.745 558.744 159.46 561.201 142.216C561.403 140.804 561.605 139.258 561.807 137.577C563.186 126.484 565.037 111.291 573.012 105.207C575.873 103.022 579.305 102.182 583.242 102.753C583.781 102.82 584.151 103.325 584.05 103.862C583.983 104.4 583.478 104.736 582.94 104.669C579.507 104.165 576.613 104.837 574.157 106.72C566.821 112.299 565.037 127.022 563.691 137.779C563.489 139.459 563.287 141.039 563.085 142.451C560.696 159.191 557.23 162.653 554.168 164.569C554 164.67 553.831 164.737 553.663 164.737Z" fill="#1D2B4B"/>
<path d="M627.864 235.393C627.561 235.393 627.258 235.259 627.09 234.99C626.787 234.553 626.855 233.948 627.292 233.645C641.426 223.259 663.501 221.948 667.337 223.225C667.842 223.393 668.111 223.931 667.943 224.435C667.774 224.939 667.236 225.208 666.731 225.04C663.231 223.864 641.829 225.343 628.436 235.192C628.234 235.326 628.032 235.393 627.864 235.393Z" fill="#1D2B4B"/>
<path d="M574.998 167.594C574.729 167.594 574.46 167.46 574.258 167.258C573.921 166.855 573.955 166.25 574.392 165.914C587.583 154.855 610.365 158.014 617.634 161.174C618.139 161.376 618.341 161.947 618.139 162.451C617.937 162.956 617.365 163.157 616.86 162.956C608.615 159.359 587.213 157.712 575.637 167.393C575.435 167.527 575.233 167.594 574.998 167.594Z" fill="#1D2B4B"/>
<path d="M602.591 412L616.96 299.495C617.028 298.957 616.657 298.486 616.119 298.419C615.581 298.352 615.11 298.722 615.042 299.259L600.64 412H602.591Z" fill="#1D2B4B"/>
<path d="M204.331 412L189.962 299.259C189.895 298.722 189.424 298.352 188.885 298.419C188.347 298.486 187.977 298.957 188.044 299.495L202.379 412H204.331Z" fill="#1D2B4B"/>
<path d="M648.425 370.857C642.772 370.857 625.542 370.857 608.279 366.453C607.775 366.319 607.438 365.781 607.573 365.277C607.707 364.772 608.212 364.436 608.751 364.571C625.778 368.907 642.806 368.907 648.425 368.907C648.964 368.907 649.401 369.344 649.401 369.882C649.401 370.42 648.964 370.857 648.425 370.857Z" fill="#1D2B4B"/>
<path d="M134.068 367.126C133.9 367.126 133.698 367.058 133.53 366.957C113.272 353.546 67.9772 335.495 43.9503 329.512C43.4456 329.377 43.1091 328.873 43.2437 328.335C43.3783 327.831 43.883 327.495 44.4214 327.629C68.5829 333.68 114.18 351.831 134.606 365.344C135.044 365.647 135.178 366.252 134.876 366.689C134.707 366.957 134.404 367.126 134.068 367.126Z" fill="#1D2B4B"/>
<path d="M626.754 385.849C626.451 385.849 626.182 385.714 625.98 385.479C625.643 385.042 625.744 384.437 626.148 384.134C648.896 366.487 700.82 339.361 743.119 341.646C743.658 341.68 744.062 342.117 744.028 342.655C743.994 343.193 743.557 343.63 743.018 343.562C701.19 341.277 649.872 368.134 627.326 385.647C627.158 385.781 626.956 385.849 626.754 385.849Z" fill="#1D2B4B"/>
<path d="M423.468 287.562C405.363 287.562 405.363 285.948 405.363 285.175C405.363 284.369 405.363 282.721 424.713 282.621C444.062 282.52 444.062 284.2 444.062 285.007C444.062 286.083 443.187 286.587 437.803 287.058C434.303 287.36 429.659 287.528 424.713 287.562C424.309 287.562 423.871 287.562 423.468 287.562ZM410.68 285.175C413.776 285.444 418.588 285.713 424.713 285.646C430.837 285.612 435.649 285.343 438.712 285.041C435.616 284.772 430.77 284.537 424.679 284.57C418.588 284.604 413.776 284.839 410.68 285.175Z" fill="#1D2B4B"/>
<path d="M423.165 309.545C420.809 309.545 418.588 309.377 416.704 308.469C405.162 302.89 405.296 286.015 405.33 285.31C405.33 284.772 405.801 284.368 406.306 284.368C406.844 284.368 407.282 284.805 407.248 285.343C407.248 285.511 407.113 301.68 417.545 306.755C419.564 307.73 422.155 307.663 425.184 307.629H425.756C428.448 307.562 430.568 307.528 432.352 306.688C442.985 301.545 442.245 285.444 442.211 285.276C442.178 284.738 442.582 284.301 443.12 284.268C443.692 284.234 444.096 284.637 444.129 285.175C444.163 285.881 444.971 302.722 433.159 308.436C431.006 309.478 428.583 309.512 425.756 309.579H425.184C424.511 309.545 423.838 309.545 423.165 309.545Z" fill="#1D2B4B"/>
<path d="M424.074 314.654C414.18 314.654 395.437 313.343 395.437 308.402C395.437 307.629 395.437 305.209 405.465 303.495C406.003 303.394 406.508 303.764 406.575 304.268C406.676 304.806 406.306 305.31 405.801 305.377C398.802 306.587 397.355 308.033 397.355 308.369C397.355 309.848 406.777 312.705 424.074 312.705C441.37 312.705 450.793 309.848 450.793 308.369C450.793 308.033 449.379 306.587 442.38 305.377C441.841 305.276 441.505 304.772 441.606 304.268C441.707 303.73 442.178 303.394 442.716 303.495C452.744 305.209 452.744 307.596 452.744 308.402C452.711 313.343 433.967 314.654 424.074 314.654Z" fill="#1D2B4B"/>
<path d="M411.488 304.133C411.353 304.133 411.252 304.1 411.117 304.066C408.997 303.192 401.897 300.066 400.282 295.764C399.474 293.612 399.945 291.394 401.493 290.251C403.075 289.074 405.329 289.411 407.517 291.158C407.921 291.495 408.021 292.1 407.685 292.503C407.348 292.906 406.743 292.974 406.339 292.671C404.892 291.528 403.512 291.192 402.637 291.831C401.83 292.436 401.594 293.78 402.099 295.091C403.176 297.948 408.021 300.738 411.858 302.285C412.362 302.486 412.598 303.058 412.396 303.528C412.228 303.898 411.858 304.133 411.488 304.133Z" fill="#1D2B4B"/>
<path d="M424.208 317.108C412.194 317.108 398.397 315.528 395.705 311.024C395.032 309.915 395.032 308.705 395.672 307.461C395.907 306.991 396.513 306.822 396.984 307.058C397.455 307.293 397.623 307.898 397.388 308.369C397.051 309.007 397.051 309.512 397.354 310.016C399.171 313.041 410.209 315.159 424.208 315.159C439.721 315.159 449.513 312.47 450.624 310.554C451.331 309.343 451.028 308.738 450.927 308.537C450.691 308.066 450.86 307.495 451.331 307.226C451.802 306.991 452.374 307.159 452.643 307.629C453.249 308.772 453.148 310.083 452.307 311.495C450.456 314.755 438.611 317.108 424.208 317.108Z" fill="#1D2B4B"/>
<path d="M539.597 276.2C521.56 276.2 521.526 274.587 521.526 273.814C521.526 273.007 521.526 271.36 540.876 271.259C560.259 271.158 560.225 272.839 560.225 273.646C560.225 274.721 559.35 275.226 553.966 275.696C550.466 275.999 545.822 276.167 540.876 276.2C540.438 276.2 540.001 276.2 539.597 276.2ZM526.877 273.814C529.973 274.083 534.819 274.318 540.876 274.285C547 274.251 551.812 273.982 554.875 273.679C551.779 273.411 546.933 273.175 540.876 273.209C534.751 273.242 529.939 273.511 526.877 273.814Z" fill="#1D2B4B"/>
<path d="M539.294 298.184C536.939 298.184 534.751 298.016 532.867 297.108C521.325 291.528 521.493 274.553 521.527 273.847C521.527 273.31 521.964 272.839 522.502 272.906C523.041 272.906 523.478 273.343 523.445 273.881C523.445 274.049 523.276 290.318 533.708 295.36C535.727 296.335 538.318 296.268 541.347 296.234H541.885C544.611 296.167 546.731 296.133 548.515 295.293C559.182 290.15 558.408 274.049 558.375 273.881C558.341 273.343 558.745 272.906 559.283 272.873C559.889 272.805 560.259 273.242 560.293 273.78C560.326 274.486 561.134 291.327 549.322 297.041C547.169 298.083 544.712 298.117 541.885 298.184H541.347C540.674 298.184 539.967 298.184 539.294 298.184Z" fill="#1D2B4B"/>
<path d="M540.237 303.293C530.343 303.293 511.6 301.982 511.6 297.041C511.6 296.268 511.6 293.848 521.695 292.133C522.2 292.032 522.704 292.402 522.805 292.94C522.906 293.478 522.536 293.948 521.998 294.049C514.965 295.259 513.518 296.738 513.518 297.041C513.518 298.52 522.94 301.377 540.237 301.377C557.533 301.377 566.956 298.52 566.956 297.041C566.956 296.705 565.576 295.293 558.778 294.083C558.24 293.982 557.904 293.478 558.004 292.974C558.105 292.436 558.61 292.066 559.115 292.201C568.907 293.915 568.907 296.268 568.907 297.041C568.874 301.982 550.13 303.293 540.237 303.293Z" fill="#1D2B4B"/>
<path d="M527.651 292.772C527.516 292.772 527.415 292.738 527.28 292.705C525.16 291.831 518.06 288.705 516.445 284.402C515.637 282.251 516.108 280.032 517.656 278.889C519.238 277.713 521.492 278.049 523.68 279.797C524.084 280.133 524.185 280.738 523.848 281.141C523.512 281.545 522.906 281.612 522.502 281.31C521.055 280.167 519.675 279.831 518.8 280.469C517.993 281.074 517.757 282.419 518.262 283.73C519.339 286.587 524.185 289.377 528.021 290.923C528.526 291.125 528.761 291.696 528.559 292.167C528.391 292.536 528.054 292.772 527.651 292.772Z" fill="#1D2B4B"/>
<path d="M540.372 305.747C528.358 305.747 514.561 304.167 511.869 299.663C511.196 298.554 511.196 297.344 511.836 296.1C512.071 295.629 512.677 295.461 513.148 295.696C513.619 295.932 513.788 296.537 513.552 297.007C513.215 297.646 513.215 298.15 513.518 298.654C515.335 301.68 526.373 303.797 540.372 303.797C555.885 303.797 565.678 301.108 566.788 299.192C567.427 298.083 567.259 297.512 567.091 297.175C566.855 296.705 567.024 296.133 567.495 295.864C567.966 295.629 568.538 295.797 568.807 296.268C569.413 297.411 569.312 298.722 568.471 300.133C566.62 303.394 554.808 305.747 540.372 305.747Z" fill="#1D2B4B"/>
<path fill-rule="evenodd" clip-rule="evenodd" d="M489.391 90.585C488.718 89.3076 488.953 87.8622 489.895 87.3244C490.838 86.7866 492.15 87.3916 492.79 88.6353C493.463 89.9127 493.227 91.3581 492.285 91.8959C491.376 92.4337 490.064 91.8287 489.391 90.585Z" fill="#1D2B4B"/>
<path fill-rule="evenodd" clip-rule="evenodd" d="M410.175 62.5849C409.939 61.1731 410.612 59.8621 411.689 59.6604C412.766 59.4588 413.809 60.4336 414.011 61.8453C414.247 63.2571 413.574 64.5681 412.497 64.7698C411.454 64.9714 410.41 63.9966 410.175 62.5849Z" fill="#1D2B4B"/>
<path fill-rule="evenodd" clip-rule="evenodd" d="M385.34 63.1562C385.004 61.778 385.61 60.3999 386.653 60.131C387.696 59.862 388.806 60.7696 389.143 62.1478C389.479 63.5259 388.874 64.9041 387.83 65.173C386.787 65.4419 385.677 64.5344 385.34 63.1562Z" fill="#1D2B4B"/>
<path fill-rule="evenodd" clip-rule="evenodd" d="M247.808 103.291C248.044 101.879 249.087 100.837 250.164 100.972C251.24 101.106 251.914 102.35 251.712 103.762C251.476 105.173 250.433 106.215 249.356 106.081C248.279 105.98 247.572 104.703 247.808 103.291Z" fill="#1D2B4B"/>
<path fill-rule="evenodd" clip-rule="evenodd" d="M273.687 105.072C273.923 103.661 274.966 102.619 276.043 102.753C277.119 102.888 277.826 104.131 277.591 105.543C277.355 106.955 276.312 107.997 275.235 107.862C274.158 107.762 273.451 106.484 273.687 105.072Z" fill="#1D2B4B"/>
<path d="M413.843 72.9379C413.271 72.9379 412.699 72.9043 412.127 72.8034C409.166 72.3328 406.272 70.4841 404.421 67.8958C402.705 65.5093 402.032 62.6857 402.503 59.9294C402.604 59.3916 403.109 59.0554 403.613 59.1563C404.152 59.2571 404.488 59.7613 404.421 60.2655C403.916 63.1227 405.027 65.4084 406.003 66.7866C407.55 68.9715 409.973 70.5177 412.43 70.9211C416.098 71.5261 419.126 69.8454 420.573 66.4504C420.775 65.9462 421.347 65.7109 421.852 65.9462C422.357 66.1479 422.592 66.7193 422.357 67.2236C420.809 70.8538 417.646 72.9379 413.843 72.9379Z" fill="#1D2B4B"/>
<path d="M403.546 64.904C403.31 64.904 403.041 64.8032 402.873 64.6351C401.661 63.3914 397.32 63.0217 395.705 64.299C395.301 64.6351 394.696 64.5679 394.359 64.1645C394.023 63.7612 394.09 63.1561 394.494 62.82C396.916 60.8704 402.368 61.4418 404.219 63.2906C404.589 63.6603 404.589 64.2654 404.219 64.6687C404.05 64.8032 403.781 64.904 403.546 64.904Z" fill="#1D2B4B"/>
<path d="M385.341 73.4084C383.692 73.4084 382.177 72.9378 380.865 71.9967C378.846 70.5849 377.466 68.1647 376.962 65.2403C376.659 63.4924 376.861 61.1058 377.399 60.0302C377.635 59.5596 378.207 59.3579 378.678 59.5932C379.149 59.8285 379.351 60.3999 379.115 60.8705C378.846 61.442 378.577 63.358 378.846 64.9378C379.25 67.3916 380.36 69.3412 381.976 70.4504C383.288 71.358 384.87 71.6941 386.586 71.3916C390.624 70.6521 394.561 65.9462 393.753 60.7361C393.686 60.1983 394.023 59.7277 394.561 59.6268C395.099 59.5596 395.571 59.8957 395.672 60.4336C396.681 66.921 391.869 72.4 386.956 73.274C386.384 73.3412 385.879 73.4084 385.341 73.4084Z" fill="#1D2B4B"/>
<path d="M193.697 282.99C193.529 282.99 193.361 282.957 193.192 282.856C192.721 282.587 192.587 281.982 192.856 281.545L193.192 280.973C195.784 276.671 201.807 266.62 207.797 265.679C208.335 265.612 208.807 265.948 208.907 266.486C208.975 267.024 208.638 267.494 208.1 267.595C203.019 268.402 197.096 278.251 194.875 281.982L194.539 282.553C194.337 282.822 194.034 282.99 193.697 282.99Z" fill="#1D2B4B"/>
<path d="M374.438 54.9882C374.068 54.9882 373.731 54.7866 373.563 54.4168C373.327 53.9462 373.529 53.3748 374.034 53.1395C377.13 51.6941 378.173 47.0218 379.317 42.0806C381 34.7864 382.884 26.5174 391.835 25.3409C392.34 25.2737 392.845 25.6434 392.912 26.1812C392.979 26.7191 392.609 27.1897 392.071 27.2569C384.432 28.2653 382.783 35.4923 381.168 42.5175C379.923 47.9293 378.745 53.0386 374.808 54.8874C374.707 54.9882 374.572 54.9882 374.438 54.9882Z" fill="#1D2B4B"/>
<path d="M395.47 23.929C394.932 23.929 394.494 23.492 394.494 22.9542C394.494 19.3911 394.831 14.9541 397.388 11.8616C397.725 11.4583 398.33 11.391 398.768 11.7272C399.172 12.0633 399.239 12.6684 398.869 13.0717C397.186 15.0886 396.412 18.1138 396.412 22.9206C396.412 23.492 396.008 23.929 395.47 23.929Z" fill="#1D2B4B"/>
<path d="M434.976 83.6607C434.943 83.6607 434.909 83.6607 434.875 83.6607C426.765 82.7531 421.482 75.2236 420.001 62.3832L419.934 61.9126C418.857 52.5679 416.603 33.1392 408.358 28.0299C405.902 26.5173 403.142 26.3492 399.878 27.5257C399.373 27.6937 398.835 27.4584 398.633 26.9542C398.465 26.45 398.7 25.9122 399.205 25.7105C403.008 24.3324 406.406 24.5677 409.334 26.4164C418.386 32.0299 420.607 51.3578 421.819 61.7109L421.886 62.1815C423.266 74.0135 427.943 80.9716 435.043 81.7447C435.582 81.8119 435.952 82.2825 435.885 82.8203C435.885 83.2909 435.481 83.6607 434.976 83.6607Z" fill="#1D2B4B"/>
<path d="M358.891 109.644C358.722 109.644 358.554 109.611 358.419 109.51C357.948 109.241 357.78 108.669 358.049 108.199C364.51 96.8709 361.986 92.8373 359.092 88.1313C357.915 86.249 356.737 84.2994 355.963 81.812C353.843 74.8203 357.309 66.8538 360.068 60.4672C360.842 58.6521 361.616 56.9041 362.121 55.4251C363.938 50.2486 365.082 45.2402 366.193 40.3998C368.717 29.4081 371.106 18.9878 380.764 9.34066C385.071 5.0381 393.45 -0.609019 398.834 1.47503C399.339 1.67672 399.575 2.21454 399.373 2.71875C399.171 3.22295 398.599 3.45825 398.128 3.25657C393.854 1.6095 386.215 6.61795 382.11 10.6852C372.856 19.929 370.635 29.6098 368.044 40.8031C366.933 45.6771 365.755 50.7192 363.905 56.0302C363.366 57.5764 362.592 59.3243 361.785 61.2067C359.126 67.3244 355.862 74.9211 357.746 81.2405C358.419 83.4926 359.564 85.3078 360.674 87.0893C363.77 92.0978 366.731 96.8373 359.698 109.14C359.564 109.476 359.227 109.644 358.891 109.644Z" fill="#1D2B4B"/>
<path d="M423.602 134.283C423.3 134.283 423.03 134.149 422.828 133.88C422.526 133.443 422.593 132.838 423.03 132.535C434.236 124.165 432.352 116.938 429.727 106.955C428.044 100.535 426.16 93.2742 427.371 84.2657C427.439 83.7279 427.943 83.3581 428.448 83.4254C428.987 83.4926 429.357 83.9968 429.289 84.501C428.112 93.1397 429.962 100.199 431.611 106.451C434.203 116.367 436.457 124.938 424.174 134.081C424.006 134.216 423.804 134.283 423.602 134.283Z" fill="#1D2B4B"/>
<path d="M429.76 133.644C429.222 133.644 428.784 133.207 428.784 132.67C428.784 132.132 429.222 131.695 429.76 131.695C437.197 131.695 440.427 124.367 440.966 117.51C441 116.972 441.538 116.569 442.009 116.636C442.547 116.669 442.951 117.14 442.884 117.678C442.11 127.527 437.096 133.644 429.76 133.644Z" fill="#1D2B4B"/>
<path d="M440.293 132.535C439.822 132.535 439.384 132.165 439.351 131.695C439.283 131.157 439.654 130.686 440.192 130.619C444.062 130.149 446.956 126.922 446.956 123.123C446.956 122.585 447.393 122.148 447.932 122.148C448.47 122.148 448.908 122.585 448.908 123.123C448.908 127.896 445.273 131.93 440.428 132.535C440.36 132.535 440.327 132.535 440.293 132.535Z" fill="#1D2B4B"/>
<path d="M461.459 125.711C456.513 125.711 452.542 122.552 450.859 117.073C450.691 116.568 450.994 116.031 451.499 115.863C452.003 115.695 452.542 115.997 452.71 116.501C454.325 121.846 458.296 124.468 463.277 123.594C463.781 123.493 464.32 123.863 464.387 124.367C464.488 124.905 464.118 125.409 463.613 125.476C462.906 125.644 462.166 125.711 461.459 125.711Z" fill="#1D2B4B"/>
<path d="M462.738 120.501C462.57 120.501 462.401 120.468 462.233 120.367C454.426 115.594 456.008 109.308 457.993 101.375C459.036 97.2742 460.214 92.6355 460.349 87.2909C460.618 77.1732 457.758 71.9294 454.46 65.8117C452.676 62.5512 450.859 59.1562 449.277 54.6856C448.234 51.7612 447.292 47.5258 446.182 42.5846C444.062 33.1728 441.47 21.4752 437.062 14.9541C429.625 3.92877 418.318 -0.373789 406.036 3.18927C405.497 3.32373 404.993 3.05482 404.824 2.51699C404.69 2.01279 404.959 1.47497 405.497 1.3069C418.621 -2.49146 430.702 2.08002 438.644 13.8448C443.254 20.6684 445.912 32.5677 448.032 42.1476C449.109 47.0216 450.051 51.2233 451.061 54.0133C452.609 58.3495 454.392 61.6772 456.142 64.8705C459.575 71.2235 462.536 76.7026 462.233 87.3245C462.098 92.8708 460.887 97.6103 459.844 101.812C457.892 109.543 456.613 114.653 463.209 118.686C463.68 118.955 463.815 119.56 463.545 120.031C463.377 120.333 463.074 120.501 462.738 120.501Z" fill="#1D2B4B"/>
<path d="M568.806 90.5851C568.403 90.5851 568.032 90.3498 567.898 89.9464C564.364 80.5345 557.432 80.232 549.423 79.8959C542.794 79.627 535.929 79.3244 530.511 73.6773C530.141 73.3076 530.175 72.6689 530.545 72.2992C530.915 71.9294 531.555 71.963 531.925 72.3328C536.77 77.4421 543.231 77.711 549.491 77.9463C557.466 78.2824 565.71 78.6186 569.681 89.2405C569.883 89.7447 569.614 90.2825 569.109 90.4842C569.042 90.5514 568.907 90.5851 568.806 90.5851Z" fill="#1D2B4B"/>
<path d="M560.798 91.1902C560.428 91.1902 560.058 90.9549 559.889 90.5851C559.688 90.0809 559.923 89.5431 560.428 89.3414C563.187 88.2322 566.149 83.9632 567.697 79.022C569.648 72.7026 569.009 66.4504 565.947 61.8454C565.644 61.4084 565.778 60.8033 566.216 60.5008C566.653 60.1983 567.259 60.3327 567.562 60.7697C570.927 65.8454 571.667 72.7026 569.547 79.5598C567.831 85.1397 564.466 89.7784 561.168 91.1229C561.034 91.1566 560.899 91.1902 560.798 91.1902Z" fill="#1D2B4B"/>
<path d="M567.326 57.4418C567.192 57.4418 567.091 57.4082 566.956 57.3746C566.451 57.1729 566.216 56.6015 566.418 56.1309C567.36 53.8115 569.514 52.1981 572.239 51.7611C575.234 51.2905 578.196 52.4334 580.147 54.7527C580.484 55.1561 580.417 55.7611 580.013 56.0973C579.609 56.4334 579.003 56.3662 578.667 55.9628C577.153 54.1477 574.898 53.2737 572.576 53.6435C570.557 53.946 568.942 55.1561 568.269 56.8368C568.1 57.2065 567.73 57.4418 567.326 57.4418Z" fill="#1D2B4B"/>
<path d="M571.869 84.7362C571.23 84.7362 570.624 84.6689 570.018 84.5009C569.514 84.3664 569.211 83.8286 569.345 83.3244C569.48 82.8202 570.018 82.5176 570.523 82.6521C574.259 83.6941 579.172 80.0975 580.854 75.1226C582.268 70.8537 581.83 65.9797 579.676 62.6855C578.027 60.1645 575.47 58.6855 572.307 58.383C571.768 58.3493 571.398 57.8451 571.432 57.3409C571.465 56.8031 571.97 56.4333 572.475 56.467C576.244 56.8367 579.306 58.6182 581.292 61.6435C583.748 65.4082 584.287 70.9545 582.671 75.7613C580.955 80.9378 576.21 84.7362 571.869 84.7362Z" fill="#1D2B4B"/>
</svg>
