<?xml version="1.0" encoding="utf-8"?>
<!-- Generator: Adobe Illustrator 23.0.3, SVG Export Plug-In . SVG Version: 6.00 Build 0)  -->
<svg version="1.1" id="Layer_1" xmlns="http://www.w3.org/2000/svg" xmlns:xlink="http://www.w3.org/1999/xlink" x="0px" y="0px"
	 viewBox="0 0 20 20" style="enable-background:new 0 0 20 20;" xml:space="preserve">
<style type="text/css">
	.st0{opacity:0.3;fill-rule:evenodd;clip-rule:evenodd;fill:#01B075;enable-background:new    ;}
	.st1{fill-rule:evenodd;clip-rule:evenodd;fill:#01B075;}
</style>
<path class="st0" d="M10,20c5.5,0,10-4.5,10-10c0-5.5-4.5-10-10-10C4.5,0,0,4.5,0,10C0,15.5,4.5,20,10,20z"/>
<path class="st1" d="M15,11H5c-0.6,0-1-0.4-1-1v0c0-0.6,0.4-1,1-1h10c0.6,0,1,0.4,1,1v0C16,10.6,15.6,11,15,11z"/>
<path class="st1" d="M11,15V5c0-0.6-0.4-1-1-1h0C9.4,4,9,4.4,9,5v10c0,0.6,0.4,1,1,1h0C10.6,16,11,15.6,11,15z"/>
</svg>
