<svg width="40" height="40" viewBox="0 0 40 40" fill="none" xmlns="http://www.w3.org/2000/svg">
<path opacity="0.3" fill-rule="evenodd" clip-rule="evenodd" d="M9.21738 7.44772C9.47661 6.05467 10.6985 5 12.1667 5H27.8333C29.301 5 30.5225 6.05389 30.7823 7.44617L38.2278 11.7448C38.7061 12.021 38.87 12.6326 38.5938 13.1109L35.1667 19.0467C34.8906 19.525 34.279 19.6889 33.8007 19.4128L30.8333 17.6995V32.3333C30.8333 32.8856 30.3856 33.3333 29.8333 33.3333H10.1667C9.61437 33.3333 9.16666 32.8856 9.16666 32.3333V17.7009L6.20166 19.4128C5.72337 19.6889 5.11178 19.525 4.83564 19.0467L1.40856 13.1109C1.13241 12.6326 1.29629 12.021 1.77458 11.7448L9.21738 7.44772Z" fill="#01B075"/>
<path fill-rule="evenodd" clip-rule="evenodd" d="M16.9345 5C16.7673 5 16.6112 5.08355 16.5185 5.22265L15.2626 7.10645C15.1154 7.32724 15.1663 7.62458 15.3786 7.7838L18.3336 10L16.7022 21.4192C16.68 21.575 16.7324 21.7322 16.8437 21.8434L19.6467 24.6464C19.8419 24.8417 20.1585 24.8417 20.3538 24.6464L23.1568 21.8434C23.2681 21.7322 23.3205 21.575 23.2982 21.4192L21.6669 10L24.6218 7.7838C24.8341 7.62458 24.885 7.32724 24.7379 7.10645L23.482 5.22265C23.3893 5.08355 23.2331 5 23.066 5H16.9345Z" fill="#01B075"/>
</svg>
